<?xml version="1.0" standalone="no"?>
<!DOCTYPE svg PUBLIC "-//W3C//DTD SVG 1.1//EN" "http://www.w3.org/Graphics/SVG/1.1/DTD/svg11.dtd" >
<svg xmlns="http://www.w3.org/2000/svg">
<metadata></metadata>
<defs>
<font id="droidlogoregular" horiz-adv-x="1158" >
<font-face units-per-em="2048" ascent="1638" descent="-410" />
<missing-glyph horiz-adv-x="532" />
<glyph horiz-adv-x="2048" />
<glyph horiz-adv-x="2048" />
<glyph unicode="&#xd;" horiz-adv-x="682" />
<glyph unicode=" "  horiz-adv-x="532" />
<glyph unicode="&#x09;" horiz-adv-x="532" />
<glyph unicode="&#xa0;" horiz-adv-x="532" />
<glyph unicode="!" horiz-adv-x="581" d="M124 111q0 46 12 79q14 36 36 57q24 23 54 33t64 10q32 0 63 -10t55 -33t37 -57t13 -79q0 -44 -13 -78t-36 -57.5t-54 -34t-65 -10.5t-64 10.5t-53 34t-36 57.5t-13 78zM138 1502h308l-56 -1128h-196z" />
<glyph unicode="&#x22;" horiz-adv-x="853" d="M105 1502h283l-47 -608h-189zM466 1502h282l-47 -608h-188z" />
<glyph unicode="#" horiz-adv-x="1353" d="M26 388v217h292l49 248h-265v217h306l82 432h228l-82 -432h212l84 432h226l-84 -432h253v-217h-296l-48 -248h272v-217h-314l-82 -428h-229l84 428h-209l-82 -428h-225l78 428h-250zM547 605h209l48 248h-209z" />
<glyph unicode="$" horiz-adv-x="1318" d="M148 174v248l57 -27q32 -14 73.5 -29t89.5 -27t92 -18t73 -8v347q-88 26 -156.5 57t-116.5 76.5t-72 105t-24 137.5q0 72 28 132t79 105t119 69.5t143 34.5v177h257v-170q97 -7 179.5 -26t153.5 -50l36 -16l-99 -207l-36 15q-54 23 -116.5 39t-117.5 22v-333 q87 -26 156.5 -57t120 -75t77 -102.5t26.5 -135.5q0 -74 -28.5 -136t-80.5 -107t-121 -70.5t-150 -38.5v-225h-257v212q-38 1 -88 4.5t-100.5 12.5t-95 22t-80.5 31zM425 1049q0 -30 7.5 -51.5t25 -39.5t39.5 -28.5t36 -16.5v259q-47 -14 -77.5 -42t-30.5 -81zM790 312 q52 14 87 46t35 88q0 26 -8.5 46t-28 37.5t-44 28.5t-41.5 18v-264z" />
<glyph unicode="%" horiz-adv-x="1880" d="M118 1005q0 108 18 194.5t60 150t107 98.5t161 35q92 0 162 -35t116 -98t69 -150t23 -195q0 -107 -21 -195t-66 -151.5t-123 -98.5t-168 -35q-82 0 -147 35t-108 98.5t-63 151t-20 195.5zM346 1006q0 -146 30 -208t88 -62q124 0 124 270q0 268 -124 268q-58 0 -88 -61 t-30 -207zM350 0l918 1462h266l-934 -1462h-250zM1038 461q10 107 30 194t64 150t115 97.5t165 34.5q92 0 158 -34.5t108 -97.5t63 -149.5t21 -194.5t-18 -195t-60 -151t-109 -99.5t-165 -35.5q-92 0 -163 36t-117 99t-69 150.5t-23 195.5zM1288 460q0 -146 32 -207.5 t90 -61.5q126 0 126 269q0 268 -124 268q-58 0 -89 -61t-35 -207z" />
<glyph unicode="&#x26;" horiz-adv-x="1468" d="M20 381q0 84 22 151.5t64 122t92 94t100 70.5l-32 41q-32 40 -56 87t-40 101t-16 117q0 83 29 150.5t82 115t129 71t170 23.5q90 0 163 -24t125 -71.5t79 -114.5t27 -150q0 -73 -28 -134t-74 -111.5t-93 -84.5t-85 -59l288 -304q8 11 22 30.5t30 51t28 68t22 80.5l8 32 h266l-12 -49q-16 -68 -37 -126.5t-49 -110t-57 -89t-53 -66.5l314 -333h-334l-154 157q-36 -31 -79 -63.5t-101 -58.5t-124 -40.5t-148 -14.5q-112 0 -202 28.5t-155 86t-98 140t-33 186.5zM290 387q0 -47 14 -85t41 -64.5t68 -41.5t95 -15q52 0 97 10.5t83 28.5t64 37 t42 34l-336 353q-34 -22 -65 -47t-55 -56.5t-36 -67.5t-12 -86zM412 1165q0 -29 7 -57t22 -56.5t35 -54.5t40 -49q40 25 76 50.5t60 53t35 56t11 61.5q0 28 -9 51t-27 39t-43 26t-61 10q-70 0 -108 -33.5t-38 -96.5z" />
<glyph unicode="'" horiz-adv-x="493" d="M105 1502h283l-47 -608h-189z" />
<glyph unicode="(" horiz-adv-x="646" d="M28 561q0 128 18 252.5t56 242.5t97 227t139 205l12 14h268l-46 -63q-136 -188 -206 -413t-70 -463q0 -116 18 -231t52 -225t86 -213t118 -194l48 -64h-268l-12 14q-80 93 -139 199.5t-97 222.5t-56 239t-18 250z" />
<glyph unicode=")" horiz-adv-x="646" d="M26 1502h270l12 -14q80 -96 139 -205t97 -227t57 -242.5t19 -252.5q0 -127 -19 -250t-57 -239t-97 -222.5t-139 -199.5l-12 -14h-268l48 64q66 91 118 194t87 213t52 225t17 231q0 238 -70 463t-206 412z" />
<glyph unicode="*" d="M52 1044l42 281l378 -107l-42 378h296l-42 -379l384 108l38 -281l-348 -25l230 -305l-256 -138l-156 318l-142 -318l-262 137l226 306z" />
<glyph unicode="+" d="M77 607v230h387v389h230v-389h387v-230h-387v-385h-230v385h-387z" />
<glyph unicode="," horiz-adv-x="542" d="M67 -304l12 50q15 60 22 93l28 130q21 98 32 160t18 115l6 34h254l36 -56l-4 -17q-15 -55 -34.5 -117t-31.5 -94l-37 -94l-75 -180l-11 -24h-215z" />
<glyph unicode="-" horiz-adv-x="689" d="M56 425v248h576v-248h-576z" />
<glyph unicode="." horiz-adv-x="579" d="M130 117q0 77 40 120t117 43t119 -40q44 -40 44 -117t-40 -120t-117 -43t-121 40q-42 40 -42 117z" />
<glyph unicode="/" horiz-adv-x="794" d="M-22 -40l574 1542h264l-574 -1542h-264z" />
<glyph unicode="0" horiz-adv-x="1452" d="M102 723q0 197 41.5 342t120.5 232.5t196 128.5q118 42 270 42q150 0 267 -42q115 -41 193 -128.5t119 -232.5t41 -342q0 -191 -41 -332t-119 -225.5t-193 -125.5q-117 -40 -267 -40q-152 0 -270 40q-117 41 -196 125.5t-120.5 225.5t-41.5 332zM386 723q0 -121 24 -208 t71 -137.5t108 -74t141 -23.5q79 0 138.5 24t105 76.5t69 141t23.5 212.5t-23.5 212.5t-69 141t-105 76.5t-138.5 24q-80 0 -141 -25t-108 -78t-71 -144t-24 -218z" />
<glyph unicode="1" horiz-adv-x="666" d="M103 1188v280h460v-1468h-280v1188h-180z" />
<glyph unicode="2" horiz-adv-x="1472" d="M131 0v377q0 193 110.5 295t354.5 102h204q136 0 203 49t67 156v2q0 109 -67 158t-203 49h-669v280h669q289 0 415 -126q125 -126 125 -359v-2q0 -234 -125 -360q-126 -127 -415 -127h-198q-102 0 -144.5 -30.5t-42.5 -88.5v-95h926v-282z" />
<glyph unicode="3" horiz-adv-x="1376" d="M129 0v280h630q102 0 152.5 36.5t50.5 120.5q0 79 -47 118t-156 39h-299v280h299q102 0 152.5 36.5t50.5 120.5q0 79 -47 118t-156 39h-630v280h630q250 0 369 -107t119 -326q0 -201 -145 -299q142 -91 145 -302v-8q0 -208 -114.5 -317t-373.5 -109h-630z" />
<glyph unicode="4" horiz-adv-x="1482" d="M78 352l638 1116h376l-499 -836h341v255h302v-255h168v-280h-168v-352h-280v352h-878z" />
<glyph unicode="5" horiz-adv-x="1494" d="M142 -2v282h670q135 0 195.5 52t60.5 156q0 108 -63.5 157t-192.5 49h-670l1 774h1209v-280h-941l3 -214h398q275 0 409 -120q131 -120 131 -367q0 -233 -125 -359q-125 -127 -415 -128z" />
<glyph unicode="6" horiz-adv-x="1434" d="M101 445v556q0 467 486 467h486v-280h-486q-196 0 -196 -197v-537q0 -174 196 -174h252q204 0 204 207t-240 207h-282l-1 280h283q530 0 530 -485v-2q-1 -487 -494 -487h-252q-486 0 -486 445z" />
<glyph unicode="7" horiz-adv-x="1188" d="M40 1188v280h1108v-1468h-285v1188h-823z" />
<glyph unicode="8" horiz-adv-x="1394" d="M134 437q0 196 145 298q-145 93 -145 300q0 433 487 433h152q487 0 487 -424q0 -208 -127 -302q127 -113 127 -305q0 -437 -487 -437h-152q-487 0 -487 437zM419 1031q0 -157 202 -157h152q202 0 202 160q0 154 -202 154h-152q-202 0 -202 -157zM427 437q0 -157 194 -157 h152q202 0 202 157t-202 157h-152q-194 0 -194 -157z" />
<glyph unicode="9" horiz-adv-x="1482" d="M125 979v2q1 487 494 487h252q486 0 486 -445v-556q0 -467 -486 -467h-486v280h486q196 0 196 197v537q0 174 -196 174h-252q-204 0 -204 -207t240 -207h282l1 -280h-283q-530 0 -530 485z" />
<glyph unicode=":" horiz-adv-x="579" d="M130 117q0 77 40 120t117 43t120 -40t43 -117t-40 -120t-117 -43t-120 40t-43 117zM130 957q0 77 40 120t117 43t120 -40t43 -117t-40 -120t-117 -43t-120 40t-43 117z" />
<glyph unicode=";" horiz-adv-x="579" d="M82 -304l12 50q15 60 22 93l28 130q21 98 32 161t18 116l6 34h255l35 -59l-4 -16q-15 -55 -34.5 -117t-31.5 -94l-37 -94l-75 -180l-11 -24h-215zM177 957q0 77 40 120t117 43t120 -40t43 -117t-40 -120t-117 -43t-120 40t-43 117z" />
<glyph unicode="&#x3c;" d="M77 636v152l1004 523v-251l-680 -337l680 -298v-249z" />
<glyph unicode="=" d="M77 402v230h1004v-230h-1004zM77 812v229h1004v-229h-1004z" />
<glyph unicode="&#x3e;" d="M77 176v249l681 298l-681 337v251l1004 -523v-152z" />
<glyph unicode="?" horiz-adv-x="1231" d="M90 1228v280h574q238 0 357.5 -117t119.5 -340t-119.5 -340t-357.5 -117h-23v-234h-280v514h303q110 0 155.5 45.5t45.5 131.5t-45.5 131.5t-155.5 45.5h-574zM341 117q0 77 40 120t117 43t120 -40t43 -117t-40 -120t-117 -43t-120 40t-43 117z" />
<glyph unicode="@" horiz-adv-x="1804" d="M84 579.5q0 190.5 62 360.5q126 347 454 491q164 71 346 71q351 0 561 -207q101 -101 157 -243q56 -143 56 -300q0 -328 -164 -484q-92 -87 -220 -87q-103 0 -171 66q-31 29 -50 66q-102 -132 -277 -132q-170 0 -268 121q-93 115 -93 304q0 220 125 357q129 142 341 142 q181 0 322 -49l29 -10l-25 -446l-2 -75q0 -135 87 -135q57 0 98 91q43 96 43 241q0 271 -150 422q-144 143 -380 143q-311 0 -485 -197q-167 -190 -167 -508q0 -433 320 -549q106 -38 205 -38q250 0 460 83l55 22v-226l-24 -11q-193 -85 -413.5 -85t-368.5 54 q-300 109 -409 409q-54 148 -54 338.5zM717 602q0 -212 146 -212q157 0 173 274l12 220q-56 12 -112 12q-108 0 -167 -88q-52 -78 -52 -206z" />
<glyph unicode="A" horiz-adv-x="1682" d="M131 739q0 192 46.5 333.5t133.5 226.5q90 85 218 126q128 43 293 43h729v-1468h-283v1188h-446q-195 0 -301.5 -106t-106.5 -349q0 -242 106.5 -347.5t301.5 -105.5h314v-280l-314 -1h-4q-164 0 -291.5 41.5t-216.5 128.5q-87 87 -133 230.5t-46 339.5z" />
<glyph unicode="B" horiz-adv-x="1594" d="M138 0v280h859q86 0 130.5 38.5t44.5 131.5q0 77 -43.5 110.5t-131.5 33.5h-859v280h859q86 0 130.5 35t44.5 122t-44.5 122t-130.5 35h-859v280h859q232 0 344.5 -108.5t114.5 -324.5v-5q0 -188 -131 -292q131 -113 131 -293q0 -222 -112 -333.5t-347 -111.5h-859z" />
<glyph unicode="C" horiz-adv-x="1627" d="M131 733q0 193 46 336t133 229q88 85 216 126q127 44 291 44h679v-280h-679q-75 0 -134.5 -14.5t-111 -48t-85.5 -85t-53 -129t-19 -177.5t19 -177.5t53 -129t85.5 -85t111 -48t134.5 -14.5h679v-280l-679 2q-351 1 -523 185q-163 183 -163 546z" />
<glyph unicode="D" horiz-adv-x="1632" d="M99 0v280h715q101 0 179 23.5t137 75t89.5 140t30.5 211.5q0 125 -30.5 215t-89.5 142.5t-137 76.5t-179 24h-715v280h715q171 0 305 -43q133 -41 227 -126q91 -86 139 -227.5t48 -333.5v-5q0 -121 -20 -222.5t-54 -176.5t-84 -133t-109 -95q-63 -37 -139 -61.5 t-152 -34.5t-161 -10h-715z" />
<glyph unicode="E" horiz-adv-x="1592" d="M137 445v3q1 178 131 290q-131 104 -131 292v5q2 216 114.5 324.5t344.5 108.5h859v-280h-859q-86 0 -130.5 -35t-44.5 -122t44.5 -122t130.5 -35h859v-280h-859q-88 0 -131.5 -33.5t-43.5 -110.5q0 -93 44.5 -131.5t130.5 -38.5h859v-280h-859q-235 0 -347 111.5 t-112 333.5z" />
<glyph unicode="F" horiz-adv-x="1554" d="M141 0v970q0 244 138 371q141 127 447 127h687v-280h-693q-148 0 -221.5 -55.5t-73.5 -175.5v-959zM559 594v280h854v-280h-854z" />
<glyph unicode="G" horiz-adv-x="1672" d="M131 734q0 193 44.5 335.5t128.5 228.5q85 85 208 126q124 44 282 44h747v-280h-743q-184 0 -284 -106t-100 -349q0 -124 27 -212.5t78.5 -140.5t119 -76t155.5 -24h464v214h-325v280h606l2 -774h-750q-158 0 -280.5 41.5t-207.5 126.5q-83 86 -127.5 229t-44.5 337z" />
<glyph unicode="H" horiz-adv-x="1708" d="M125 594v280h201l-1 594h280v-594h698v594h280v-1468h-280v594h-698v-594h-280v594h-200z" />
<glyph unicode="I" horiz-adv-x="564" d="M142 0v1468h280v-1468h-280z" />
<glyph unicode="J" horiz-adv-x="1584" d="M122 624v90h284v-90q0 -172 89 -258t280 -86q202 0 302.5 76.5t100.5 239.5v592h-220v280h504v-876q0 -290 -162 -441q-171 -151 -529 -151q-331 0 -493 156q-156 156 -156 468z" />
<glyph unicode="K" horiz-adv-x="1606" d="M140 0v1468h280v-792l684 792h359l-651 -752l654 -716h-370l-489 523l-187 -204v-319h-280z" />
<glyph unicode="L" horiz-adv-x="1379" d="M79 0v1468h284v-1188h937v-280h-1221z" />
<glyph unicode="M" horiz-adv-x="2266" d="M129 0v936q0 532 572 532q323 0 433 -142q117 142 431 142q572 0 572 -532v-936h-280v925q0 263 -293 263q-291 0 -291 -263v-925h-280v927q0 261 -291 261q-293 0 -293 -263v-925h-280z" />
<glyph unicode="N" horiz-adv-x="1660" d="M120 0v866q0 296 168 449q173 153 541 153h1q368 0 542 -153q168 -153 168 -449v-866h-280v855q0 161 -100 247t-330 86t-330 -86t-100 -247v-855h-280z" />
<glyph unicode="O" horiz-adv-x="1638" d="M99 751q0 189 48.5 328t139.5 223q95 83 229 124q134 42 305 42t304 -42q133 -41 227 -125q91 -84 139 -224t48 -329q0 -198 -48 -343.5t-140 -233.5q-94 -88 -227.5 -129.5t-287.5 -41.5t-265 28q-112 26 -205 82q-87 57 -145 143.5t-90 212.5t-32 285zM382 749 q0 -250 113.5 -359.5t323.5 -109.5t323.5 109.5t113.5 359.5q0 120 -30.5 206.5t-89.5 136.5t-136 73t-179 23t-180.5 -23t-137.5 -73t-90 -136.5t-31 -206.5z" />
<glyph unicode="P" horiz-adv-x="1562" d="M135 0v774h756q127 0 189.5 49t62.5 155.5t-59.5 158t-192.5 51.5h-756v280h756q271 0 404 -121q132 -120 132 -367q0 -233 -125 -360q-125 -126 -411 -126h-472v-494h-284z" />
<glyph unicode="Q" horiz-adv-x="1649" d="M99 751q0 152 32 272t90 203t145 137q92 54 204 79q112 26 249 26q171 0 304 -42q133 -41 228 -126q92 -85 140 -226t48 -332q0 -292 -104 -471l115 -110l-198 -188l-115 121q-168 -94 -418 -94q-137 0 -249 28q-112 26 -204 82q-87 57 -145 143.5t-90 212.5t-32 285z M382 749q0 -250 113.5 -359.5t323.5 -109.5q105 0 184 26l-95 79l217 182l86 -72q44 102 44 254q0 120 -30.5 206.5t-90 136.5t-137 73t-179 23t-179 -23t-137 -73t-90 -136.5t-30.5 -206.5z" />
<glyph unicode="R" horiz-adv-x="1538" d="M122 494v280h755q127 0 191 49t64 158t-64 158t-191 49h-755v280h755q286 0 413 -125q126 -124 126 -356q0 -283 -156 -374q156 -134 156 -571v-42h-284q0 494 -255 494h-755z" />
<glyph unicode="S" horiz-adv-x="1486" d="M96 1032q0 209 113 322.5t367 113.5h714v-280h-714q-102 0 -153 -37t-51 -120t51 -120t153 -37h334q242 0 361 -109.5t119 -333.5q0 -207 -113 -319t-367 -112h-714v280h714q98 0 147 36t49 119v2q0 79 -46 118t-150 39h-334q-242 0 -361 108.5t-119 329.5z" />
<glyph unicode="T" horiz-adv-x="1374" d="M47 1188v280h1280v-280h-484l-1 -1188h-311v1188h-484z" />
<glyph unicode="U" horiz-adv-x="1780" d="M140 602v866h283l3 -855q1 -161 108 -247q108 -86 356 -86t356 86q107 86 108 247l3 855h283v-866q0 -303 -168 -449q-176 -153 -582 -153h-1q-406 0 -581 153q-168 146 -168 449z" />
<glyph unicode="V" horiz-adv-x="1522" d="M86 1468h332l383 -973l303 973h332l-492 -1468h-275z" />
<glyph unicode="W" horiz-adv-x="2289" d="M140 532v936h280v-925q0 -263 293 -263q291 0 291 261v927h280v-925q0 -263 292 -263h1q291 0 291 263v925h280v-936q0 -532 -572 -532q-314 0 -430 142q-110 -142 -434 -142q-572 0 -572 532z" />
<glyph unicode="X" horiz-adv-x="1614" d="M116 0l476 734l-476 734h363l327 -474l328 474h364l-491 -734l491 -734h-364l-328 471l-327 -471h-363z" />
<glyph unicode="Y" horiz-adv-x="1568" d="M130 974v494h284v-493q9 -201 370 -201q372 0 372 192q0 5 -1 9v493h283v-494q0 -422 -496 -462v-512h-280v511q-532 45 -532 463z" />
<glyph unicode="Z" horiz-adv-x="1334" d="M117 0v217l704 971h-684v280h1059v-217l-704 -971h725v-280h-1100z" />
<glyph unicode="[" horiz-adv-x="651" d="M83 -364v1866h485v-229h-223v-1407h223v-230h-485z" />
<glyph unicode="\" horiz-adv-x="794" d="M-22 1502h264l574 -1542h-264z" />
<glyph unicode="]" horiz-adv-x="651" d="M82 -134h224v1407h-224v229h486v-1866h-486v230z" />
<glyph unicode="^" horiz-adv-x="1120" d="M-8 509l498 1004h152l486 -1004h-250l-312 680l-324 -680h-250z" />
<glyph unicode="_" horiz-adv-x="872" d="M-29 -144h930v-220h-930v220z" />
<glyph unicode="`" horiz-adv-x="1212" d="M370 1537v72h284l10 -23q16 -33 26 -53l44 -79q34 -60 57 -97.5t43 -65.5l8 -10v-80h-174l-10 9q-38 29 -80 72t-81 88t-72 86.5t-49 71.5z" />
<glyph unicode="a" horiz-adv-x="1332" d="M86 340.5q0 164.5 96 252t286 87.5h360l-3 -280h-338q-66 0 -91 -15t-25 -45t25 -45t91 -15h474l3 402v1q0 117 -120 117h-558v280h558q402 0 402 -387v-693h-759q-209 0 -305 88t-96 252.5z" />
<glyph unicode="b" horiz-adv-x="1398" d="M100 0v1468h298l-2 -1188h276q152 0 236 60q90 65 90 200v24q0 121 -58 176q-66 60 -188 60h-172v280h172q300 0 423 -131t123 -409t-123 -409t-503 -131h-572z" />
<glyph unicode="c" horiz-adv-x="1140" d="M90 539.5q0 123.5 28 219t74 155t114 97.5q78 38 170 53q92 16 200 16h374v-280h-374q-142 0 -219 -60t-77 -201q0 -139 77 -199t219 -60h374v-280h-374q-108 0 -200 16q-92 15 -170 52q-66 38 -113 97.5t-75 155t-28 219z" />
<glyph unicode="d" horiz-adv-x="1452" d="M126 540q0 278 123 409t423 131h174l-2 -280h-172q-120 0 -186 -60t-66 -200t66 -200t188 -60h354v1188h298v-1468h-654q-300 0 -423 131t-123 409z" />
<glyph unicode="e" horiz-adv-x="1446" d="M76 541q0 259 142 399q152 140 518 140h6q358 0 496 -99q132 -99 132 -278q0 -303 -365 -303h-482v280h452q56 1 80 8q26 7 26 27q0 85 -344 85q-193 0 -283 -67t-90 -202q0 -131 93 -191t280 -60h353v-280h-354q-346 0 -510 133q-150 133 -150 408z" />
<glyph unicode="f" horiz-adv-x="910" d="M140 0v890q0 284 151 426q150 152 439 152h40v-280h-40q-161 0 -235 -82q-75 -69 -75 -209v-23h250v-280h-250v-594h-280z" />
<glyph unicode="g" horiz-adv-x="1486" d="M123 539q0 280 150 408q158 133 510 133h580v-1140q0 -208 -107 -320t-405 -112h-532v280h532q108 0 162 37.5t54 114.5l1 860h-286q-194 0 -282.5 -65t-88.5 -195t89.5 -195t282.5 -65h100v-280h-101q-351 0 -509 133q-150 127 -150 406z" />
<glyph unicode="h" horiz-adv-x="1248" d="M104 0v1468h280v-388h120q335 0 490 -133q150 -132 150 -407v-540h-280v527q0 137 -86.5 205t-273.5 68h-120v-800h-280z" />
<glyph unicode="i" horiz-adv-x="562" d="M141 0v942h280v-942h-280zM141 1229q0 42 18 88q17 43 60 54q40 11 62 11h2q35 -2 52 -8q42 -14 64 -51t22 -90v-5q-1 -38 -11 -64q-19 -46 -65 -64q-27 -12 -64 -12h-2q-36 2 -54 8q-48 16 -69 62q-15 32 -15 71z" />
<glyph unicode="j" horiz-adv-x="838" d="M40 -492l1 280h39q423 0 423 360v794h295v-794q0 -640 -720 -640h-38zM503 1225v6q1 30 11 51q26 60 90 79q24 7 51 7h5q31 -1 51 -7q60 -19 79 -79q8 -24 8 -51v-6q-1 -30 -8 -51q-19 -60 -79 -79q-23 -7 -50 -7h-6q-30 1 -51 7q-64 19 -90 79q-11 24 -11 51z" />
<glyph unicode="k" horiz-adv-x="1214" d="M84 0v1468h280v-732l352 344h376l-454 -456l492 -624h-354l-380 453l-32 -35v-418h-280z" />
<glyph unicode="l" horiz-adv-x="564" d="M142 0v1468h280v-1468h-280z" />
<glyph unicode="m" horiz-adv-x="1736" d="M98 0v687q0 394 455 394q238 0 317 -93q84 93 314 93h1h2q451 0 451 -394v-687h-280v673q0 132 -175 132t-175 -132v-673h-280v673q0 132 -175 132t-175 -134v-671h-280z" />
<glyph unicode="n" horiz-adv-x="1282" d="M97 0v635v3q0 216 125.5 329t414.5 113h2q291 0 418 -114t128 -331v-635h-280v620q-1 87 -62 133.5t-204 46.5t-202.5 -45.5t-59.5 -131.5v-3v-620h-280z" />
<glyph unicode="o" horiz-adv-x="1402" d="M81 540q0 540 620 540t620 -540q0 -538 -620 -540h-4q-616 0 -616 540zM371 540q2 -260 325 -260h5q330 1 330 258v3v2q0 256 -330 257q-330 0 -330 -257v-3z" />
<glyph unicode="p" horiz-adv-x="1426" d="M92 -492v1572h632q607 0 610 -538q-2 -542 -598 -542h-164v280h164q307 0 307 260q0 244 -319 244h-334v-1276h-298z" />
<glyph unicode="q" horiz-adv-x="1492" d="M125 542q4 538 610 538h632v-1572h-298v1276h-334q-318 0 -318 -244q0 -260 306 -260h164v-280h-164q-596 0 -598 542z" />
<glyph unicode="r" horiz-adv-x="980" d="M77 0v540q0 540 620 540h206v-280h-206q-331 0 -331 -273v-527h-289z" />
<glyph unicode="s" horiz-adv-x="1324" d="M82 740q0 163 89.5 251.5t286.5 88.5h684v-280h-684q-49 0 -70 -13.5t-21 -44.5q0 -34 21 -48t70 -14h397q201 0 294 -87.5t93 -250.5v-2q0 -164 -93 -252t-294 -88h-673v280h673q58 0 80 15t22.5 45t-22 45t-80.5 15h-397q-189 0 -282.5 84.5t-93.5 255.5z" />
<glyph unicode="t" horiz-adv-x="1008" d="M91 546v734h291v-200h369v-280h-369v-260q0 -135 98.5 -197.5t270.5 -62.5h166v-280h-166q-342 0 -510 134q-150 134 -150 412z" />
<glyph unicode="u" horiz-adv-x="1352" d="M96 445v635h280v-620q0 -180 298 -180q302 0 302 180v620h280v-634q0 -446 -582 -446q-578 0 -578 445z" />
<glyph unicode="v" horiz-adv-x="1282" d="M44 1080h310l287 -714l286 714h311l-434 -1080h-327z" />
<glyph unicode="w" horiz-adv-x="1736" d="M98 394v687h283l1 -671q0 -73 37.5 -103.5t112.5 -30.5q74 0 112 29.5t38 102.5l1 673h309l1 -671q0 -71 37.5 -100.5t112.5 -29.5q99 0 148.5 30t50.5 100l1 671h295v-687q0 -196 -106.5 -295t-386.5 -99h-2q-211 1 -304 93q-88 -93 -307 -93q-221 0 -327.5 98.5 t-106.5 295.5z" />
<glyph unicode="x" horiz-adv-x="1374" d="M71 0l405 540l-405 540h357l259 -319l259 319h357l-406 -540l406 -540h-357l-259 318l-259 -318h-357z" />
<glyph unicode="y" horiz-adv-x="1419" d="M130 540v540h280v-527q0 -137 83 -205t263 -68h254v800h280v-1140q0 -206 -107 -317.5t-349 -112.5l-504 -2v280h504q94 0 135 38t41 114v60h-254q-322 0 -476 133q-150 132 -150 407z" />
<glyph unicode="z" horiz-adv-x="1350" d="M95 0v215l697 585h-697v280h1142v-215l-681 -585h699v-280h-1160z" />
<glyph unicode="{" horiz-adv-x="755" d="M31 452v235h40q113 0 165 34q51 34 51 115v333q0 87 31 151q31 63 86 104q54 41 126 59t153 19l41 1v-229l-39 -1q-37 -1 -63 -6t-40 -17q-15 -11 -23 -33q-9 -22 -9 -62v-332q0 -121 -70 -193q-35 -37 -86 -61q51 -24 86 -60q70 -72 70 -194v-331q0 -40 9 -62 q8 -22 23 -33q14 -12 40 -17t63 -6l39 -1v-230l-41 1q-81 1 -153 19t-126 59q-55 41 -86 104q-31 64 -31 151v334q0 81 -51 115q-52 34 -165 34h-40z" />
<glyph unicode="|" d="M464 -532v2128h230v-2128h-230z" />
<glyph unicode="}" horiz-adv-x="755" d="M31 -135l39 1q37 1 63 6t40 17q15 11 23 33q9 22 9 62v331q0 122 70 194q35 36 86 60q-51 24 -86 61q-70 72 -70 193v332q0 40 -9 62q-8 22 -23 33q-14 12 -40 17t-63 6l-39 1v229l41 -1q81 -1 153 -19t126 -59q55 -41 86 -104q31 -64 31 -151v-333q0 -43 12 -70 q13 -27 37 -44q25 -17 67 -26t100 -9h40v-235h-40q-113 0 -165 -34q-51 -34 -51 -115v-334q0 -87 -31 -151q-31 -63 -86 -104q-54 -41 -126 -59t-153 -19l-41 -1v230z" />
<glyph unicode="~" d="M77 489v275l11 11q112 121 277 121q31 0 58.5 -2.5t57.5 -10t65 -20.5t83 -33l44 -19q45 -18 66 -24t38 -8t37 -2q22 0 47 8t51.5 22.5t52 35t47.5 43.5l69 71v-277l-11 -11q-110 -121 -277 -121q-31 0 -58.5 2.5t-57.5 10t-65 20.5t-83 33l-76 32q-13 5 -33 11t-37.5 8 t-37.5 2q-22 0 -47 -8t-51.5 -22.5t-52 -35t-49.5 -43.5z" />
<glyph unicode="&#xa1;" horiz-adv-x="581" d="M124 979q0 44 13 78t36 57t54 33.5t63 10.5q34 0 65 -10.5t54 -34t36 -57t13 -77.5q0 -45 -13 -79.5t-37 -57t-54 -32.5t-64 -10q-32 0 -62 10t-54 32.5t-37 57t-13 79.5zM136 -413l56 1129h196l56 -1129h-308z" />
<glyph unicode="&#xa2;" d="M152 743q0 146 28 253.5t81 182.5t123 112.5t142 52.5v179h218v-167q56 -5 119 -20t113 -40l30 -16l-78 -228l-40 17q-20 10 -47 19t-55 16t-55 11t-49 4q-136 0 -199 -87.5t-63 -286.5q0 -197 63 -281t191 -84q74 0 136 17.5t114 40.5l56 25v-246l-20 -12 q-56 -30 -108 -44.5t-108 -18.5v-202h-218v213q-74 15 -143 52.5t-123 110.5t-81 179t-27 248z" />
<glyph unicode="&#xa3;" d="M44 -40v225l30 8q38 10 70 27q30 17 52 45t34 70q14 42 14 103v173h-198v217h198v284q0 95 32 172q34 76 92 129t138 81q80 27 176 27q110 0 202 -24q92 -23 162 -61l34 -17l-100 -217l-36 19q-54 28 -120 48t-134 20q-42 0 -76 -11t-56 -34q-24 -23 -38 -62 q-14 -40 -14 -99v-255h376v-217h-376v-171q0 -67 -12 -117q-14 -50 -36 -87q-10 -16 -20 -30h676v-246h-1070z" />
<glyph unicode="&#xa4;" d="M82 1065l154 155l134 -135q38 23 90 40t118 17q68 0 119 -17t89 -40l134 134l156 -152l-136 -135q22 -38 40 -90t18 -119q0 -66 -17 -118.5t-41 -91.5l134 -132l-154 -152l-134 132q-38 -22 -90 -38.5t-118 -16.5t-118 17t-92 40l-132 -133l-152 153l132 133 q-22 38 -38 89.5t-16 117.5q0 65 17 116.5t37 90.5zM380 723q0 -42 15 -78t42 -63t63 -43t78 -16q44 0 81 16t64 43t43 63t16 78q0 43 -16 80t-43 64.5t-64 43.5t-81 16q-42 0 -78 -16t-63 -43.5t-42 -64.5t-15 -80z" />
<glyph unicode="&#xa5;" d="M-21 1502h282l316 -684l321 684h281l-385 -768h214v-217h-301v-78h301v-217h-301v-262h-258v262h-301v217h301v78h-301v217h210z" />
<glyph unicode="&#xa6;" d="M464 329h230v-861h-230v861zM464 736v860h230v-860h-230z" />
<glyph unicode="&#xa7;" horiz-adv-x="1025" d="M102 31v246l57 -28q30 -14 66.5 -28.5t76 -25.5t81.5 -17.5t82 -6.5q64 0 104.5 10.5t60.5 24.5t27.5 31t7.5 35q0 22 -5.5 36.5t-25.5 32t-61 39t-121 54.5q-70 29 -133.5 63t-108.5 78t-68.5 101.5t-23.5 132.5q0 57 15 104.5t41 84.5t43 50l24 19q-43 31 -83 85 t-40 151q0 71 32.5 129t89 96.5t132.5 58.5t167 20q102 0 184.5 -21t157.5 -54l36 -16l-86 -213l-38 16q-62 27 -128 45.5t-132 18.5q-88 0 -124.5 -21t-36.5 -55q0 -17 7.5 -32t31 -33t73.5 -42.5t109 -48.5q80 -32 137.5 -65t101 -76.5t67.5 -99.5t24 -126 q0 -58 -13.5 -105.5t-37 -86t-38.5 -52.5l-25 -24q41 -32 77.5 -84t36.5 -143q0 -81 -34 -145t-95 -107.5t-144.5 -65t-184.5 -21.5q-112 0 -195 17.5t-147 52.5zM352 831q0 -29 10.5 -52.5t37 -48t74 -50.5t118.5 -55l14 -6q10 7 23 18.5t26.5 30.5t22 41t8.5 49 q0 30 -10 54.5t-37 49t-75.5 50t-118.5 51.5q-13 -5 -29 -15.5t-31 -28.5t-24 -40.5t-9 -47.5z" />
<glyph unicode="&#xa8;" horiz-adv-x="1212" d="M282 1391q0 44 14 73q10 24 39 48.5t83 24.5t84 -25t40 -48q14 -29 14 -65q0 -44 -14 -73q-10 -23 -40 -48.5t-84 -25.5q-56 0 -84 26t-38 48q-14 30 -14 65zM658 1391q0 44 12 73q10 24 39 48.5t85 24.5q26 0 50 -8.5t44 -27t30 -45.5q12 -26 12 -57q0 -44 -14 -73 q-10 -23 -40 -48.5t-82 -25.5q-56 0 -85 26t-39 48q-12 30 -12 65z" />
<glyph unicode="&#xa9;" horiz-adv-x="1734" d="M75 731q0 110 28.5 211t79.5 189t123.5 160.5t160.5 123.5t189 79.5t211 28.5t211 -28.5t189 -79.5t160.5 -123.5t123.5 -160.5t79.5 -189t28.5 -211t-28.5 -211t-79.5 -189t-123.5 -160t-160.5 -123.5t-189.5 -79.5t-210.5 -28t-210.5 28t-189.5 79.5t-160.5 123.5 t-123.5 160t-79.5 189t-28.5 211zM264 731q0 -125 47.5 -234.5t129.5 -191.5t191.5 -129.5t234.5 -47.5t234 47q31 13 59 29h-336q-75 0 -139 14.5t-124.5 51.5t-103 95t-68 151t-25.5 213q0 121 25.5 214t68 151.5t103 95.5t124.5 51.5t139 14.5h339q-30 17 -62 31 q-109 47 -234 47t-234.5 -47.5t-191.5 -129.5t-129.5 -191.5t-47.5 -234.5zM624 729q0 -144 51.5 -204.5t148.5 -60.5h341v-257q71 40 128 98q82 82 129.5 191.5t47.5 234.5t-47.5 234.5t-129.5 191.5q-57 58 -128 98v-259h-341q-96 0 -148 -61t-52 -206z" />
<glyph unicode="&#xaa;" horiz-adv-x="708" d="M59 989q0 122 83 186q83 63 239 69l61 2q-2 42 -13 58q-2 4 -13 14t-51 10q-42 0 -82 -13t-79 -33l-37 -20l-83 173l35 18q54 27 117 47q63 19 129 19q140 0 212 -64t72 -204v-494h-160l-16 47q-20 -17 -45 -30q-28 -15 -61 -22q-32 -8 -72 -8q-50 0 -93 16 q-44 15 -76 47t-50 78q-17 46 -17 104zM270 987q0 -20 5 -33q2 -7 11 -15t36 -8t48 8q22 7 37 23q16 16 25 41q10 25 10 62v7l-32 -2q-47 -3 -75 -10q-28 -8 -41 -17q-13 -10 -19 -22q-5 -13 -5 -34z" />
<glyph unicode="&#xab;" horiz-adv-x="1027" d="M49 513v53l340 455l182 -121l-246 -359l246 -359l-182 -121zM456 513v53l341 455l181 -121l-245 -359l245 -359l-181 -121z" />
<glyph unicode="&#xac;" d="M77 607v230h1004v-615h-229v385h-775z" />
<glyph unicode="&#xad;" horiz-adv-x="689" d="M56 425v248h576v-248h-576z" />
<glyph unicode="&#xae;" horiz-adv-x="1734" d="M75 731q0 110 28.5 211t79.5 189t123.5 160.5t160.5 123.5t189 79.5t211 28.5t211 -28.5t189 -79.5t160.5 -123.5t123.5 -160.5t79.5 -189t28.5 -211t-28.5 -211t-79.5 -189t-123.5 -160t-160.5 -123.5t-189.5 -79.5t-210.5 -28t-210.5 28t-189.5 79.5t-160.5 123.5 t-123.5 160t-79.5 189t-28.5 211zM264 731q0 -125 47.5 -234.5t129.5 -191.5t191.5 -129.5t234.5 -47.5q124 0 233 46q-2 324 -149 324h-505v220h505q81 0 115 36.5t34 110.5t-34 110.5t-115 36.5h-505v150l-5 -5q-82 -82 -129.5 -191.5t-47.5 -234.5zM532 1232h419 q185 0 277 -95.5t92 -271.5q0 -203 -102 -278q74 -78 94 -262q69 75 111 172q47 109 47 234t-47.5 234.5t-129.5 191.5t-191.5 129.5t-234.5 47.5t-234 -47q-54 -24 -101 -55z" />
<glyph unicode="&#xaf;" horiz-adv-x="1054" d="M-31 1516v220h1116v-220h-1116z" />
<glyph unicode="&#xb0;" horiz-adv-x="907" d="M98 1167q0 73 28 138t76 113.5t113 76.5t138 28t138 -28t113.5 -76.5t76.5 -113.5t28 -138t-28 -137.5t-76.5 -112.5t-113.5 -75.5t-138 -27.5t-138 27.5t-113 75.5t-76 112.5t-28 137.5zM301 1167q0 -31 12 -58t32.5 -47.5t48 -32.5t59.5 -12t59.5 12t48.5 32.5t33 47.5 t12 58q0 32 -12 60t-33 49t-48.5 33.5t-59.5 12.5t-59.5 -12t-48 -33.5t-32.5 -49.5t-12 -60z" />
<glyph unicode="&#xb1;" d="M77 -40v230h1004v-230h-1004zM77 607v230h387v389h230v-389h387v-230h-387v-385h-230v385h-387z" />
<glyph unicode="&#xb2;" horiz-adv-x="708" d="M24 1372l28 26q58 52 131 87.5t165 35.5q66 0 122 -19t96 -56.5t62 -90.5t22 -118q0 -57 -17 -105t-46 -94t-49 -70l-112 -125l-84 -90h342v-207h-652v168l220 239q56 61 91 102t53 71t24 54t6 53q0 48 -21 68.5t-59 20.5q-42 0 -82 -21.5t-82 -57.5l-30 -26z" />
<glyph unicode="&#xb3;" horiz-adv-x="708" d="M15 1388l30 23q31 25 64 45t70.5 34.5t79 22.5t89.5 8q75 0 134.5 -19t101 -55t62.5 -85.5t21 -106.5q0 -92 -34.5 -137t-61.5 -65q41 -23 81.5 -72t40.5 -141q0 -68 -23.5 -126t-71.5 -99.5t-118 -63.5t-162 -22q-74 0 -140.5 13.5t-128.5 47.5l-21 11v224l59 -32 q59 -32 120.5 -49.5t108.5 -17.5q82 0 114 30t32 86q0 52 -39 76.5t-124 24.5h-138v193h138q76 0 106 28t30 75q0 24 -6.5 39.5t-17.5 24.5t-27.5 14t-37.5 5q-51 0 -93.5 -18t-90.5 -52l-32 -24z" />
<glyph unicode="&#xb4;" horiz-adv-x="1212" d="M370 1201v80l8 11q20 28 32 46l46 77q34 58 55 98t37 73l10 23h284v-72l-6 -9q-16 -30 -49 -71.5t-72 -86.5t-81 -88t-78 -72l-12 -9h-174z" />
<glyph unicode="&#xb5;" horiz-adv-x="1247" d="M150 -532v1670h262v-747q0 -116 42 -168t134 -52q74 0 120 22q46 21 74 64q28 42 40 111q14 68 14 160v610h262v-1178h-220l-18 98q-38 -43 -86 -71q-82 -47 -196 -47q-80 0 -140 27q-16 6 -28 13q0 -33 2 -68v-84v-360h-262z" />
<glyph unicode="&#xb6;" horiz-adv-x="1371" d="M179 1042q0 147 32.5 245.5t92 158.5t142.5 85t183 25h563v-1816h-120v1657h-207v-1657h-121v819q-61 -18 -146 -18q-95 0 -172.5 25.5t-132 84.5t-84.5 155t-30 236z" />
<glyph unicode="&#xb7;" horiz-adv-x="579" d="M122 723q0 45 13 79t37 57t54 33t64 10q32 0 63 -10t54 -33t36 -57t13 -79q0 -44 -13 -77.5t-36 -57t-54 -34t-63 -10.5q-34 0 -65 10.5t-54 34t-36 57t-13 77.5z" />
<glyph unicode="&#xb8;" horiz-adv-x="450" d="M-2 -326l48 -10q12 -2 35 -3.5t37 -1.5q62 0 87 13.5t25 38.5q0 11 -7 19.5t-24 18.5t-46 18.5t-65 17.5l-50 12l126 243h208l-64 -130q12 -5 35 -15t50 -36t43 -62.5t16 -83.5q0 -117 -84 -181t-248 -64q-24 0 -49 3.5t-41 6.5l-32 6v190z" />
<glyph unicode="&#xb9;" horiz-adv-x="708" d="M116 1281l286 221h190v-956h-226v556q0 25 2 56v46l2 19l-6 -4l-124 -97z" />
<glyph unicode="&#xba;" horiz-adv-x="747" d="M41 1133q0 89 22.5 160.5t66.5 122t106.5 77t138.5 26.5q70 0 131.5 -26.5t106 -76.5t69 -121.5t24.5 -161.5q0 -89 -22.5 -161t-67 -123t-107 -78t-138.5 -27q-71 0 -132 27t-105.5 78t-68.5 123t-24 161zM252 1133q0 -108 28.5 -154t92.5 -46q63 0 91.5 46t28.5 154 t-28.5 151.5t-91.5 43.5q-64 0 -92.5 -43.5t-28.5 -151.5z" />
<glyph unicode="&#xbb;" horiz-adv-x="1027" d="M48 182l246 359l-246 359l182 121l340 -455v-53l-340 -452zM456 182l246 359l-246 359l182 121l340 -455v-53l-340 -452z" />
<glyph unicode="&#xbc;" horiz-adv-x="1539" d="M108 1281l286 221h190v-956h-226v556q0 25 2 56v46l2 19l-6 -4l-124 -97zM242 0l811 1462h157l-811 -1462h-157zM788 193v111l378 579h140v-563h126v-127h-126v-192h-142v192h-376zM934 320h230v195q0 42 1 91.5t5 98.5q-6 -11 -16 -29.5t-21 -39.5t-23 -41t-20 -35z" />
<glyph unicode="&#xbd;" horiz-adv-x="1539" d="M66 1281l286 221h190v-956h-226v556q0 25 2 56v46l2 19l-6 -4l-124 -97zM198 0l811 1462h157l-811 -1462h-157zM812 787l28 26q58 52 131 87.5t165 35.5q66 0 122 -19t96 -56.5t62 -90.5t22 -118q0 -57 -17 -105t-46 -94t-49 -70l-112 -125l-84 -90h342v-207h-652v168 l220 239q56 61 91 102t53 71t24 54t6 53q0 48 -21 68.5t-59 20.5q-42 0 -82 -21.5t-82 -57.5l-30 -26z" />
<glyph unicode="&#xbe;" horiz-adv-x="1539" d="M-10 1388l30 23q31 25 64 45t70.5 34.5t79 22.5t89.5 8q75 0 134.5 -19t101 -55t62.5 -85.5t21 -106.5q0 -92 -34.5 -137t-61.5 -65q41 -23 81.5 -72t40.5 -141q0 -68 -23.5 -126t-71.5 -99.5t-118 -63.5t-162 -22q-74 0 -140.5 13.5t-128.5 47.5l-21 11v224l59 -32 q59 -32 120.5 -49.5t108.5 -17.5q82 0 114 30t32 86q0 52 -39 76.5t-124 24.5h-138v193h138q76 0 106 28t30 75q0 24 -6.5 39.5t-17.5 24.5t-27.5 14t-37.5 5q-51 0 -93.5 -18t-90.5 -52l-32 -24zM319 0l811 1462h157l-811 -1462h-157zM777 144v133l454 694h168v-675h151 v-152h-151v-231h-170v231h-452zM953 296h276v234q0 50 1 109.5t6 118.5q-7 -13 -19 -35.5t-25.5 -47.5t-28 -49t-23.5 -42z" />
<glyph unicode="&#xbf;" horiz-adv-x="1181" d="M65 133q0 223 119.5 340t357.5 117h23v234h280v-514h-303q-110 0 -155.5 -45.5t-45.5 -131.5t45.5 -131.5t155.5 -45.5h574v-280h-574q-238 0 -357.5 117t-119.5 340zM545 1061q0 77 40 120t117 43t120 -40t43 -117t-40 -120t-117 -43t-120 40t-43 117z" />
<glyph unicode="&#xc0;" horiz-adv-x="1811" d="M195 739q0 192 46.5 333.5t133.5 226.5q90 85 218 126q128 43 293 43h729v-1468h-283v1188h-446q-195 0 -301.5 -106t-106.5 -349q0 -242 106.5 -347.5t301.5 -105.5h314v-280l-314 -1h-4q-164 0 -291.5 41.5t-216.5 128.5q-87 87 -133 230.5t-46 339.5zM748 1875v72h284 l10 -23q16 -33 26 -53l44 -79q34 -60 57 -97.5t43 -65.5l8 -10v-80h-174l-10 9q-38 29 -80 72t-81 88t-72 86.5t-49 71.5z" />
<glyph unicode="&#xc1;" horiz-adv-x="1811" d="M195 739q0 192 46.5 333.5t133.5 226.5q90 85 218 126q128 43 293 43h729v-1468h-283v1188h-446q-195 0 -301.5 -106t-106.5 -349q0 -242 106.5 -347.5t301.5 -105.5h314v-280l-314 -1h-4q-164 0 -291.5 41.5t-216.5 128.5q-87 87 -133 230.5t-46 339.5zM788 1545v80 l8 11q20 28 32 46l46 77q34 58 55 98t37 73l10 23h284v-72l-6 -9q-16 -30 -49 -71.5t-72 -86.5t-81 -88t-78 -72l-12 -9h-174z" />
<glyph unicode="&#xc2;" horiz-adv-x="1811" d="M195 739q0 192 46.5 333.5t133.5 226.5q90 85 218 126q128 43 293 43h729v-1468h-283v1188h-446q-195 0 -301.5 -106t-106.5 -349q0 -242 106.5 -347.5t301.5 -105.5h314v-280l-314 -1h-4q-164 0 -291.5 41.5t-216.5 128.5q-87 87 -133 230.5t-46 339.5zM694 1586v27 q26 29 60 67t67.5 78.5t63 81t45.5 74.5h192q16 -34 45.5 -74.5t63 -81t68 -78.5t59.5 -67v-27h-121q-51 34 -105 82.5t-106 103.5q-54 -55 -107 -103.5t-104 -82.5h-121z" />
<glyph unicode="&#xc3;" horiz-adv-x="1811" d="M195 739q0 192 46.5 333.5t133.5 226.5q90 85 218 126q128 43 293 43h729v-1468h-283v1188h-446q-195 0 -301.5 -106t-106.5 -349q0 -242 106.5 -347.5t301.5 -105.5h314v-280l-314 -1h-4q-164 0 -291.5 41.5t-216.5 128.5q-87 87 -133 230.5t-46 339.5zM656 1573 q6 60 22 109t43 83.5t64 53t83 18.5q42 0 82 -17.5t78 -38.5t73 -38.5t63 -17.5q46 0 69 26t37 88h106q-6 -60 -22 -108.5t-43 -83t-64 -53.5t-83 -19q-40 0 -79 17.5t-77 39t-73 39t-67 17.5q-46 0 -70 -26.5t-38 -88.5h-104z" />
<glyph unicode="&#xc4;" horiz-adv-x="1811" d="M195 739q0 192 46.5 333.5t133.5 226.5q90 85 218 126q128 43 293 43h729v-1468h-283v1188h-446q-195 0 -301.5 -106t-106.5 -349q0 -242 106.5 -347.5t301.5 -105.5h314v-280l-314 -1h-4q-164 0 -291.5 41.5t-216.5 128.5q-87 87 -133 230.5t-46 339.5zM736 1729 q0 44 14 73q10 24 39 48.5t83 24.5t84 -25t40 -48q14 -29 14 -65q0 -44 -14 -73q-10 -23 -40 -48.5t-84 -25.5q-56 0 -84 26t-38 48q-14 30 -14 65zM1112 1729q0 44 12 73q10 24 39 48.5t85 24.5q26 0 50 -8.5t44 -27t30 -45.5q12 -26 12 -57q0 -44 -14 -73 q-10 -23 -40 -48.5t-82 -25.5q-56 0 -85 26t-39 48q-12 30 -12 65z" />
<glyph unicode="&#xc5;" horiz-adv-x="1811" d="M195 739q0 192 46.5 333.5t133.5 226.5q90 85 218 126q128 43 293 43h729v-1468h-283v1188h-446q-195 0 -301.5 -106t-106.5 -349q0 -242 106.5 -347.5t301.5 -105.5h314v-280l-314 -1h-4q-164 0 -291.5 41.5t-216.5 128.5q-87 87 -133 230.5t-46 339.5zM796 1719 q0 51 16 90.5t45.5 67.5t70.5 42.5t91 14.5q48 0 90 -14.5t73 -42t48.5 -67t17.5 -89.5q0 -51 -17.5 -91.5t-48 -68.5t-72.5 -42.5t-91 -14.5q-50 0 -91 14.5t-70.5 42.5t-45.5 67.5t-16 90.5zM906 1719q0 -53 28.5 -83t84.5 -30q49 0 80.5 30t31.5 83t-31.5 83t-80.5 30 q-50 0 -81.5 -30t-31.5 -83z" />
<glyph unicode="&#xc6;" horiz-adv-x="1651" d="M158 739q0 729 368 729h388v-39q50 39 122 39h456v-200h-456q-118 0 -118 -217t118 -217h456v-200h-456q-118 0 -118 -206q0 -228 118 -228h456v-200h-456q-72 0 -122 39v-39h-120v1268h-268q-248 0 -248 -535q0 -533 248 -533h148v-200l-148 -1h-2q-366 0 -366 740z" />
<glyph unicode="&#xc7;" horiz-adv-x="1628" d="M131 733q0 193 46 336t133 229q88 85 216 126q127 44 291 44h679v-280h-679q-75 0 -134.5 -14.5t-111 -48t-85.5 -85t-53 -129t-19 -177.5t19 -177.5t53 -129t85.5 -85t111 -48t134.5 -14.5h679v-280l-679 2q-351 1 -523 185q-163 183 -163 546zM594 -326l48 -10 q12 -2 35 -3.5t37 -1.5q62 0 87 13.5t25 38.5q0 11 -7 19.5t-24 18.5t-46 18.5t-65 17.5l-50 12l126 243h208l-64 -130q12 -5 35 -15t50 -36t43 -62.5t16 -83.5q0 -117 -84 -181t-248 -64q-24 0 -49 3.5t-41 6.5l-32 6v190z" />
<glyph unicode="&#xc8;" horiz-adv-x="1628" d="M155 445v3q1 178 131 290q-131 104 -131 292v5q2 216 114.5 324.5t344.5 108.5h859v-280h-859q-86 0 -130.5 -35t-44.5 -122t44.5 -122t130.5 -35h859v-280h-859q-88 0 -131.5 -33.5t-43.5 -110.5q0 -93 44.5 -131.5t130.5 -38.5h859v-280h-859q-235 0 -347 111.5 t-112 333.5zM575 1868v72h284l10 -23q16 -33 26 -53l44 -79q34 -60 57 -97.5t43 -65.5l8 -10v-80h-174l-10 9q-38 29 -80 72t-81 88t-72 86.5t-49 71.5z" />
<glyph unicode="&#xc9;" horiz-adv-x="1628" d="M155 445v3q1 178 131 290q-131 104 -131 292v5q2 216 114.5 324.5t344.5 108.5h859v-280h-859q-86 0 -130.5 -35t-44.5 -122t44.5 -122t130.5 -35h859v-280h-859q-88 0 -131.5 -33.5t-43.5 -110.5q0 -93 44.5 -131.5t130.5 -38.5h859v-280h-859q-235 0 -347 111.5 t-112 333.5zM669 1539v80l8 11q20 28 32 46l46 77q34 58 55 98t37 73l10 23h284v-72l-6 -9q-16 -30 -49 -71.5t-72 -86.5t-81 -88t-78 -72l-12 -9h-174z" />
<glyph unicode="&#xca;" horiz-adv-x="1628" d="M155 445v3q1 178 131 290q-131 104 -131 292v5q2 216 114.5 324.5t344.5 108.5h859v-280h-859q-86 0 -130.5 -35t-44.5 -122t44.5 -122t130.5 -35h859v-280h-859q-88 0 -131.5 -33.5t-43.5 -110.5q0 -93 44.5 -131.5t130.5 -38.5h859v-280h-859q-235 0 -347 111.5 t-112 333.5zM537 1578v27q26 29 60 67t67.5 78.5t63 81t45.5 74.5h192q16 -34 45.5 -74.5t63 -81t68 -78.5t59.5 -67v-27h-121q-51 34 -105 82.5t-106 103.5q-54 -55 -107 -103.5t-104 -82.5h-121z" />
<glyph unicode="&#xcb;" horiz-adv-x="1628" d="M155 445v3q1 178 131 290q-131 104 -131 292v5q2 216 114.5 324.5t344.5 108.5h859v-280h-859q-86 0 -130.5 -35t-44.5 -122t44.5 -122t130.5 -35h859v-280h-859q-88 0 -131.5 -33.5t-43.5 -110.5q0 -93 44.5 -131.5t130.5 -38.5h859v-280h-859q-235 0 -347 111.5 t-112 333.5zM570 1729q0 44 14 73q10 24 39 48.5t83 24.5t84 -25t40 -48q14 -29 14 -65q0 -44 -14 -73q-10 -23 -40 -48.5t-84 -25.5q-56 0 -84 26t-38 48q-14 30 -14 65zM946 1729q0 44 12 73q10 24 39 48.5t85 24.5q26 0 50 -8.5t44 -27t30 -45.5q12 -26 12 -57 q0 -44 -14 -73q-10 -23 -40 -48.5t-82 -25.5q-56 0 -85 26t-39 48q-12 30 -12 65z" />
<glyph unicode="&#xcc;" horiz-adv-x="710" d="M119 1875v72h284l10 -23q16 -33 26 -53l44 -79q34 -60 57 -97.5t43 -65.5l8 -10v-80h-174l-10 9q-38 29 -80 72t-81 88t-72 86.5t-49 71.5zM240 0v1468h280v-1468h-280z" />
<glyph unicode="&#xcd;" horiz-adv-x="710" d="M82 0v1468h280v-1468h-280zM156 1539v80l8 11q20 28 32 46l46 77q34 58 55 98t37 73l10 23h284v-72l-6 -9q-16 -30 -49 -71.5t-72 -86.5t-81 -88t-78 -72l-12 -9h-174z" />
<glyph unicode="&#xce;" horiz-adv-x="710" d="M23 1579v27q26 29 60 67t67.5 78.5t63 81t45.5 74.5h192q16 -34 45.5 -74.5t63 -81t68 -78.5t59.5 -67v-27h-121q-51 34 -105 82.5t-106 103.5q-54 -55 -107 -103.5t-104 -82.5h-121zM150 0v1468h280v-1468h-280z" />
<glyph unicode="&#xcf;" horiz-adv-x="710" d="M31 1729q0 44 14 73q10 24 39 48.5t83 24.5t84 -25t40 -48q14 -29 14 -65q0 -44 -14 -73q-10 -23 -40 -48.5t-84 -25.5q-56 0 -84 26t-38 48q-14 30 -14 65zM152 0v1468h280v-1468h-280zM407 1729q0 44 12 73q10 24 39 48.5t85 24.5q26 0 50 -8.5t44 -27t30 -45.5 q12 -26 12 -57q0 -44 -14 -73q-10 -23 -40 -48.5t-82 -25.5q-56 0 -85 26t-39 48q-12 30 -12 65z" />
<glyph unicode="&#xd0;" horiz-adv-x="1591" d="M101 603v242h152v617h447q188 0 342 -46.5t251 -138t147 -225.5t50 -308q0 -181 -50.5 -320.5t-152 -234.5t-266 -142t-362.5 -47h-406v603h-152zM519 240h122q279 0 423 123.5t144 374.5q0 130 -36.5 222t-102.5 149t-165 85.5t-224 28.5h-161v-378h363v-242h-363v-363z " />
<glyph unicode="&#xd1;" horiz-adv-x="1770" d="M175 0v866q0 296 168 449q173 153 541 153h1q368 0 542 -153q168 -153 168 -449v-866h-280v855q0 161 -100 247t-330 86t-330 -86t-100 -247v-855h-280zM480 1579q6 60 22 109t43 83.5t64 53t83 18.5q42 0 82 -17.5t78 -38.5t73 -38.5t63 -17.5q46 0 69 26t37 88h106 q-6 -60 -22 -108.5t-43 -83t-64 -53.5t-83 -19q-40 0 -79 17.5t-77 39t-73 39t-67 17.5q-46 0 -70 -26.5t-38 -88.5h-104z" />
<glyph unicode="&#xd2;" horiz-adv-x="1710" d="M135 751q0 189 48.5 328t139.5 223q95 83 229 124q134 42 305 42t304 -42q133 -41 227 -125q91 -84 139 -224t48 -329q0 -198 -48 -343.5t-140 -233.5q-94 -88 -227.5 -129.5t-287.5 -41.5t-265 28q-112 26 -205 82q-87 57 -145 143.5t-90 212.5t-32 285zM418 749 q0 -250 113.5 -359.5t323.5 -109.5t323.5 109.5t113.5 359.5q0 120 -30.5 206.5t-89.5 136.5t-136 73t-179 23t-180.5 -23t-137.5 -73t-90 -136.5t-31 -206.5zM549 1875v72h284l10 -23q16 -33 26 -53l44 -79q34 -60 57 -97.5t43 -65.5l8 -10v-80h-174l-10 9q-38 29 -80 72 t-81 88t-72 86.5t-49 71.5z" />
<glyph unicode="&#xd3;" horiz-adv-x="1710" d="M135 751q0 189 48.5 328t139.5 223q95 83 229 124q134 42 305 42t304 -42q133 -41 227 -125q91 -84 139 -224t48 -329q0 -198 -48 -343.5t-140 -233.5q-94 -88 -227.5 -129.5t-287.5 -41.5t-265 28q-112 26 -205 82q-87 57 -145 143.5t-90 212.5t-32 285zM418 749 q0 -250 113.5 -359.5t323.5 -109.5t323.5 109.5t113.5 359.5q0 120 -30.5 206.5t-89.5 136.5t-136 73t-179 23t-180.5 -23t-137.5 -73t-90 -136.5t-31 -206.5zM723 1539v80l8 11q20 28 32 46l46 77q34 58 55 98t37 73l10 23h284v-72l-6 -9q-16 -30 -49 -71.5t-72 -86.5 t-81 -88t-78 -72l-12 -9h-174z" />
<glyph unicode="&#xd4;" horiz-adv-x="1710" d="M135 751q0 189 48.5 328t139.5 223q95 83 229 124q134 42 305 42t304 -42q133 -41 227 -125q91 -84 139 -224t48 -329q0 -198 -48 -343.5t-140 -233.5q-94 -88 -227.5 -129.5t-287.5 -41.5t-265 28q-112 26 -205 82q-87 57 -145 143.5t-90 212.5t-32 285zM418 749 q0 -250 113.5 -359.5t323.5 -109.5t323.5 109.5t113.5 359.5q0 120 -30.5 206.5t-89.5 136.5t-136 73t-179 23t-180.5 -23t-137.5 -73t-90 -136.5t-31 -206.5zM543 1579v27q26 29 60 67t67.5 78.5t63 81t45.5 74.5h192q16 -34 45.5 -74.5t63 -81t68 -78.5t59.5 -67v-27h-121 q-51 34 -105 82.5t-106 103.5q-54 -55 -107 -103.5t-104 -82.5h-121z" />
<glyph unicode="&#xd5;" horiz-adv-x="1710" d="M135 751q0 189 48.5 328t139.5 223q95 83 229 124q134 42 305 42t304 -42q133 -41 227 -125q91 -84 139 -224t48 -329q0 -198 -48 -343.5t-140 -233.5q-94 -88 -227.5 -129.5t-287.5 -41.5t-265 28q-112 26 -205 82q-87 57 -145 143.5t-90 212.5t-32 285zM418 749 q0 -250 113.5 -359.5t323.5 -109.5t323.5 109.5t113.5 359.5q0 120 -30.5 206.5t-89.5 136.5t-136 73t-179 23t-180.5 -23t-137.5 -73t-90 -136.5t-31 -206.5zM466 1579q6 60 22 109t43 83.5t64 53t83 18.5q42 0 82 -17.5t78 -38.5t73 -38.5t63 -17.5q46 0 69 26t37 88h106 q-6 -60 -22 -108.5t-43 -83t-64 -53.5t-83 -19q-40 0 -79 17.5t-77 39t-73 39t-67 17.5q-46 0 -70 -26.5t-38 -88.5h-104z" />
<glyph unicode="&#xd6;" horiz-adv-x="1710" d="M135 751q0 189 48.5 328t139.5 223q95 83 229 124q134 42 305 42t304 -42q133 -41 227 -125q91 -84 139 -224t48 -329q0 -198 -48 -343.5t-140 -233.5q-94 -88 -227.5 -129.5t-287.5 -41.5t-265 28q-112 26 -205 82q-87 57 -145 143.5t-90 212.5t-32 285zM418 749 q0 -250 113.5 -359.5t323.5 -109.5t323.5 109.5t113.5 359.5q0 120 -30.5 206.5t-89.5 136.5t-136 73t-179 23t-180.5 -23t-137.5 -73t-90 -136.5t-31 -206.5zM547 1729q0 44 14 73q10 24 39 48.5t83 24.5t84 -25t40 -48q14 -29 14 -65q0 -44 -14 -73q-10 -23 -40 -48.5 t-84 -25.5q-56 0 -84 26t-38 48q-14 30 -14 65zM923 1729q0 44 12 73q10 24 39 48.5t85 24.5q26 0 50 -8.5t44 -27t30 -45.5q12 -26 12 -57q0 -44 -14 -73q-10 -23 -40 -48.5t-82 -25.5q-56 0 -85 26t-39 48q-12 30 -12 65z" />
<glyph unicode="&#xd7;" horiz-adv-x="1318" d="M138 1014l162 161l356 -290l364 290l160 -159l-334 -293l332 -292l-158 -158l-364 289l-356 -287l-160 159l328 289z" />
<glyph unicode="&#xd8;" horiz-adv-x="1710" d="M141 732q0 167 40 304.5t124.5 237.5t225 155.5t327.5 55.5q109 0 191.5 -19t144.5 -47l88 127l210 -118l-98 -150q82 -94 128.5 -230t46.5 -315q0 -165 -42.5 -303t-128.5 -238t-224.5 -156t-317.5 -56q-192 0 -336 59l-86 -129l-211 113l96 146q-88 96 -133 236.5 t-45 326.5zM421 693q0 -127 19 -207t43 -130l568 849q-30 13 -75.5 24.5t-117.5 11.5q-114 0 -195.5 -36.5t-134.5 -104.5t-80 -171t-27 -236zM667 257q29 -12 74 -23t115 -11q115 0 195.5 36t133 105.5t78.5 173t26 235.5q0 195 -57 325z" />
<glyph unicode="&#xd9;" horiz-adv-x="1780" d="M140 602v866h283l3 -855q1 -161 108 -247q108 -86 356 -86t356 86q107 86 108 247l3 855h283v-866q0 -303 -168 -449q-176 -153 -582 -153h-1q-406 0 -581 153q-168 146 -168 449zM531 1875v72h284l10 -23q16 -33 26 -53l44 -79q34 -60 57 -97.5t43 -65.5l8 -10v-80h-174 l-10 9q-38 29 -80 72t-81 88t-72 86.5t-49 71.5z" />
<glyph unicode="&#xda;" horiz-adv-x="1780" d="M140 602v866h283l3 -855q1 -161 108 -247q108 -86 356 -86t356 86q107 86 108 247l3 855h283v-866q0 -303 -168 -449q-176 -153 -582 -153h-1q-406 0 -581 153q-168 146 -168 449zM667 1539v80l8 11q20 28 32 46l46 77q34 58 55 98t37 73l10 23h284v-72l-6 -9 q-16 -30 -49 -71.5t-72 -86.5t-81 -88t-78 -72l-12 -9h-174z" />
<glyph unicode="&#xdb;" horiz-adv-x="1780" d="M140 602v866h283l3 -855q1 -161 108 -247q108 -86 356 -86t356 86q107 86 108 247l3 855h283v-866q0 -303 -168 -449q-176 -153 -582 -153h-1q-406 0 -581 153q-168 146 -168 449zM572 1584v27q26 29 60 67t67.5 78.5t63 81t45.5 74.5h192q16 -34 45.5 -74.5t63 -81 t68 -78.5t59.5 -67v-27h-121q-51 34 -105 82.5t-106 103.5q-54 -55 -107 -103.5t-104 -82.5h-121z" />
<glyph unicode="&#xdc;" horiz-adv-x="1780" d="M140 602v866h283l3 -855q1 -161 108 -247q108 -86 356 -86t356 86q107 86 108 247l3 855h283v-866q0 -303 -168 -449q-176 -153 -582 -153h-1q-406 0 -581 153q-168 146 -168 449zM592 1714q0 44 14 73q10 24 39 48.5t83 24.5t84 -25t40 -48q14 -29 14 -65q0 -44 -14 -73 q-10 -23 -40 -48.5t-84 -25.5q-56 0 -84 26t-38 48q-14 30 -14 65zM968 1714q0 44 12 73q10 24 39 48.5t85 24.5q26 0 50 -8.5t44 -27t30 -45.5q12 -26 12 -57q0 -44 -14 -73q-10 -23 -40 -48.5t-82 -25.5q-56 0 -85 26t-39 48q-12 30 -12 65z" />
<glyph unicode="&#xdd;" horiz-adv-x="1658" d="M175 974v494h284v-493q9 -201 370 -201q372 0 372 192q0 5 -1 9v493h283v-494q0 -422 -496 -462v-512h-280v511q-532 45 -532 463zM653 1539v80l8 11q20 28 32 46l46 77q34 58 55 98t37 73l10 23h284v-72l-6 -9q-16 -30 -49 -71.5t-72 -86.5t-81 -88t-78 -72l-12 -9h-174 z" />
<glyph unicode="&#xde;" horiz-adv-x="1370" d="M167 0v1462h266v-239h160q165 0 284.5 -29t189.5 -86.5t103 -141t33 -187.5q0 -92 -30 -178.5t-99.5 -154t-196 -106.5t-314.5 -39h-130v-301h-266zM433 515h105q104 0 178.5 14.5t119 44t67.5 77.5t23 121q0 124 -81.5 181.5t-269.5 57.5h-142v-496z" />
<glyph unicode="&#xdf;" horiz-adv-x="1423" d="M148 0v1160q0 113 35.5 192t99.5 127t157 68t203 20q111 0 205 -20.5t160.5 -63.5t101 -109.5t34.5 -153.5q0 -66 -24.5 -115.5t-59.5 -86.5t-40 -48l-137 -92q-14 -3 -32.5 -22t-18.5 -34q0 -12 4.5 -20.5t22.5 -23t22 -20.5l137 -73q59 -35 105.5 -71t80.5 -78.5 t52.5 -93t18.5 -114.5q0 -89 -31.5 -155.5t-89 -109.5t-141 -63t-187.5 -20q-116 0 -202 19t-153 56l-21 12v260l70 -38q28 -15 62.5 -29.5t73 -25.5t78.5 -18t78 -7q57 0 95.5 9.5t60 24.5t32 36.5t10.5 51.5q0 28 -8 49t-28 42t-57 45t-101 56q-73 37 -125.5 70.5t-87 68 t-49.5 72.5t-15 82q0 58 28 100.5t67 74.5t80.5 58t73.5 52.5t50.5 52.5t18.5 59q0 32 -13.5 54.5t-39.5 38t-66.5 23.5t-94.5 8q-51 0 -94 -8t-72 -26.5t-47 -51.5t-18 -89v-1162h-264z" />
<glyph unicode="&#xe0;" horiz-adv-x="1477" d="M158 340.5q0 164.5 96 252t286 87.5h360l-3 -280h-338q-66 0 -91 -15t-25 -45t25 -45t91 -15h474l3 402v1q0 117 -120 117h-558v280h558q402 0 402 -387v-693h-759q-209 0 -305 88t-96 252.5zM380 1537v72h284l10 -23q16 -33 26 -53l44 -79q34 -60 57 -97.5t43 -65.5 l8 -10v-80h-174l-10 9q-38 29 -80 72t-81 88t-72 86.5t-49 71.5z" />
<glyph unicode="&#xe1;" horiz-adv-x="1477" d="M158 340.5q0 164.5 96 252t286 87.5h360l-3 -280h-338q-66 0 -91 -15t-25 -45t25 -45t91 -15h474l3 402v1q0 117 -120 117h-558v280h558q402 0 402 -387v-693h-759q-209 0 -305 88t-96 252.5zM542 1201v80l8 11q20 28 32 46l46 77q34 58 55 98t37 73l10 23h284v-72l-6 -9 q-16 -30 -49 -71.5t-72 -86.5t-81 -88t-78 -72l-12 -9h-174z" />
<glyph unicode="&#xe2;" horiz-adv-x="1477" d="M158 340.5q0 164.5 96 252t286 87.5h360l-3 -280h-338q-66 0 -91 -15t-25 -45t25 -45t91 -15h474l3 402v1q0 117 -120 117h-558v280h558q402 0 402 -387v-693h-759q-209 0 -305 88t-96 252.5zM448 1241v27q26 29 60 67t67.5 78.5t63 81t45.5 74.5h192q16 -34 45.5 -74.5 t63 -81t68 -78.5t59.5 -67v-27h-121q-51 34 -105 82.5t-106 103.5q-54 -55 -107 -103.5t-104 -82.5h-121z" />
<glyph unicode="&#xe3;" horiz-adv-x="1477" d="M158 340.5q0 164.5 96 252t286 87.5h360l-3 -280h-338q-66 0 -91 -15t-25 -45t25 -45t91 -15h474l3 402v1q0 117 -120 117h-558v280h558q402 0 402 -387v-693h-759q-209 0 -305 88t-96 252.5zM468 1241q6 60 22 109t43 83.5t64 53t83 18.5q42 0 82 -17.5t78 -38.5 t73 -38.5t63 -17.5q46 0 69 26t37 88h106q-6 -60 -22 -108.5t-43 -83t-64 -53.5t-83 -19q-40 0 -79 17.5t-77 39t-73 39t-67 17.5q-46 0 -70 -26.5t-38 -88.5h-104z" />
<glyph unicode="&#xe4;" horiz-adv-x="1477" d="M158 340.5q0 164.5 96 252t286 87.5h360l-3 -280h-338q-66 0 -91 -15t-25 -45t25 -45t91 -15h474l3 402v1q0 117 -120 117h-558v280h558q402 0 402 -387v-693h-759q-209 0 -305 88t-96 252.5zM452 1386q0 44 14 73q10 24 39 48.5t83 24.5t84 -25t40 -48q14 -29 14 -65 q0 -44 -14 -73q-10 -23 -40 -48.5t-84 -25.5q-56 0 -84 26t-38 48q-14 30 -14 65zM828 1386q0 44 12 73q10 24 39 48.5t85 24.5q26 0 50 -8.5t44 -27t30 -45.5q12 -26 12 -57q0 -44 -14 -73q-10 -23 -40 -48.5t-82 -25.5q-56 0 -85 26t-39 48q-12 30 -12 65z" />
<glyph unicode="&#xe5;" horiz-adv-x="1477" d="M158 340.5q0 164.5 96 252t286 87.5h360l-3 -280h-338q-66 0 -91 -15t-25 -45t25 -45t91 -15h474l3 402v1q0 117 -120 117h-558v280h558q402 0 402 -387v-693h-759q-209 0 -305 88t-96 252.5zM602 1456q0 51 16 90.5t45.5 67.5t70.5 42.5t91 14.5q48 0 90 -14.5t73 -42 t48.5 -67t17.5 -89.5q0 -51 -17.5 -91.5t-48 -68.5t-72.5 -42.5t-91 -14.5q-50 0 -91 14.5t-70.5 42.5t-45.5 67.5t-16 90.5zM712 1456q0 -53 28.5 -83t84.5 -30q49 0 80.5 30t31.5 83t-31.5 83t-80.5 30q-50 0 -81.5 -30t-31.5 -83z" />
<glyph unicode="&#xe6;" horiz-adv-x="1896" d="M113 327q0 174 129 267t395 101l157 5v25q0 50 -13 81t-35 48t-57.5 25t-84.5 8q-82 0 -154 -22.5t-137 -55.5l-37 -19l-97 209l33 18q77 42 177.5 71.5t214.5 29.5q151 0 235.5 -40.5t132.5 -103.5q51 57 134.5 100.5t205.5 43.5q113 0 202 -38t148.5 -104.5t90 -158 t30.5 -199.5v-144h-701q11 -136 75 -203.5t201 -67.5q50 0 93 4.5t81 12.5t73 20.5t70 28.5l58 26v-231l-22 -10q-41 -18 -81 -32t-83 -24t-91 -14t-102 -4q-160 0 -264.5 55t-169.5 141q-21 -27 -54.5 -62t-89.5 -67.5t-124 -49.5t-154 -17q-82 0 -152.5 20t-122 64 t-81 110t-29.5 153zM384 328q0 -65 38.5 -93t107.5 -28q57 0 105 14t82 42.5t54 73t20 107.5v51l-108 -5q-92 -3 -151 -16t-90 -32.5t-44.5 -47.5t-13.5 -66zM1089 702h413q-2 33 -12.5 67.5t-35 61.5t-60 41.5t-87.5 14.5q-97 0 -149.5 -49.5t-68.5 -135.5z" />
<glyph unicode="&#xe7;" horiz-adv-x="1251" d="M146 539.5q0 123.5 28 219t74 155t114 97.5q78 38 170 53q92 16 200 16h374v-280h-374q-142 0 -219 -60t-77 -201q0 -139 77 -199t219 -60h374v-280h-374q-108 0 -200 16q-92 15 -170 52q-66 38 -113 97.5t-75 155t-28 219zM425 -326l48 -10q12 -2 35 -3.5t37 -1.5 q62 0 87 13.5t25 38.5q0 11 -7 19.5t-24 18.5t-46 18.5t-65 17.5l-50 12l126 243h208l-64 -130q12 -5 35 -15t50 -36t43 -62.5t16 -83.5q0 -117 -84 -181t-248 -64q-24 0 -49 3.5t-41 6.5l-32 6v190z" />
<glyph unicode="&#xe8;" horiz-adv-x="1579" d="M142 541q0 259 142 399q152 140 518 140h6q358 0 496 -99q132 -99 132 -278q0 -303 -365 -303h-482v280h452q56 1 80 8q26 7 26 27q0 85 -344 85q-193 0 -283 -67t-90 -202q0 -131 93 -191t280 -60h353v-280h-354q-346 0 -510 133q-150 133 -150 408zM398 1537v72h284 l10 -23q16 -33 26 -53l44 -79q34 -60 57 -97.5t43 -65.5l8 -10v-80h-174l-10 9q-38 29 -80 72t-81 88t-72 86.5t-49 71.5z" />
<glyph unicode="&#xe9;" horiz-adv-x="1579" d="M142 541q0 259 142 399q152 140 518 140h6q358 0 496 -99q132 -99 132 -278q0 -303 -365 -303h-482v280h452q56 1 80 8q26 7 26 27q0 85 -344 85q-193 0 -283 -67t-90 -202q0 -131 93 -191t280 -60h353v-280h-354q-346 0 -510 133q-150 133 -150 408zM588 1201v80l8 11 q20 28 32 46l46 77q34 58 55 98t37 73l10 23h284v-72l-6 -9q-16 -30 -49 -71.5t-72 -86.5t-81 -88t-78 -72l-12 -9h-174z" />
<glyph unicode="&#xea;" horiz-adv-x="1579" d="M142 541q0 259 142 399q152 140 518 140h6q358 0 496 -99q132 -99 132 -278q0 -303 -365 -303h-482v280h452q56 1 80 8q26 7 26 27q0 85 -344 85q-193 0 -283 -67t-90 -202q0 -131 93 -191t280 -60h353v-280h-354q-346 0 -510 133q-150 133 -150 408zM376 1241v27 q26 29 60 67t67.5 78.5t63 81t45.5 74.5h192q16 -34 45.5 -74.5t63 -81t68 -78.5t59.5 -67v-27h-121q-51 34 -105 82.5t-106 103.5q-54 -55 -107 -103.5t-104 -82.5h-121z" />
<glyph unicode="&#xeb;" horiz-adv-x="1579" d="M142 541q0 259 142 399q152 140 518 140h6q358 0 496 -99q132 -99 132 -278q0 -303 -365 -303h-482v280h452q56 1 80 8q26 7 26 27q0 85 -344 85q-193 0 -283 -67t-90 -202q0 -131 93 -191t280 -60h353v-280h-354q-346 0 -510 133q-150 133 -150 408zM380 1391 q0 44 14 73q10 24 39 48.5t83 24.5t84 -25t40 -48q14 -29 14 -65q0 -44 -14 -73q-10 -23 -40 -48.5t-84 -25.5q-56 0 -84 26t-38 48q-14 30 -14 65zM756 1391q0 44 12 73q10 24 39 48.5t85 24.5q26 0 50 -8.5t44 -27t30 -45.5q12 -26 12 -57q0 -44 -14 -73 q-10 -23 -40 -48.5t-82 -25.5q-56 0 -85 26t-39 48q-12 30 -12 65z" />
<glyph unicode="&#xec;" horiz-adv-x="610" d="M42 1537v72h284l10 -23q16 -33 26 -53l44 -79q34 -60 57 -97.5t43 -65.5l8 -10v-80h-174l-10 9q-38 29 -80 72t-81 88t-72 86.5t-49 71.5zM203 0v1098h366v-1098h-366z" />
<glyph unicode="&#xed;" horiz-adv-x="610" d="M40 0v1098h366v-1098h-366zM98 1201v80l8 11q20 28 32 46l46 77q34 58 55 98t37 73l10 23h284v-72l-6 -9q-16 -30 -49 -71.5t-72 -86.5t-81 -88t-78 -72l-12 -9h-174z" />
<glyph unicode="&#xee;" horiz-adv-x="610" d="M-27 1241v27q26 29 60 67t67.5 78.5t63 81t45.5 74.5h192q16 -34 45.5 -74.5t63 -81t68 -78.5t59.5 -67v-27h-121q-51 34 -105 82.5t-106 103.5q-54 -55 -107 -103.5t-104 -82.5h-121zM128 0v1098h366v-1098h-366z" />
<glyph unicode="&#xef;" horiz-adv-x="610" d="M-19 1391q0 44 14 73q10 24 39 48.5t83 24.5t84 -25t40 -48q14 -29 14 -65q0 -44 -14 -73q-10 -23 -40 -48.5t-84 -25.5q-56 0 -84 26t-38 48q-14 30 -14 65zM128 0v1098h366v-1098h-366zM357 1391q0 44 12 73q10 24 39 48.5t85 24.5q26 0 50 -8.5t44 -27t30 -45.5 q12 -26 12 -57q0 -44 -14 -73q-10 -23 -40 -48.5t-82 -25.5q-56 0 -85 26t-39 48q-12 30 -12 65z" />
<glyph unicode="&#xf0;" horiz-adv-x="1372" d="M127 484q0 118 34 210.5t99 157.5t163 98q105 33 234 33q126 0 224 -31q20 -6 37 -13q-21 40 -48 74q-61 80 -143 144l-302 -157l-124 181l217 120l-41 23q-40 24 -93 49l-37 20l121 191l39 -17q76 -33 141 -66.5t123 -69.5l266 144l118 -180l-191 -112q53 -52 103 -123 q50 -66 91 -157t64 -198t23 -231q0 -138 -35.5 -247t-103.5 -186.5t-174 -117.5q-111 -43 -248 -43q-128 0 -237 36q-104 33 -173.5 98t-108 158.5t-38.5 211.5zM403 511q0 -71 17 -127t51 -94t87 -58.5t130 -20.5q153 0 219.5 85.5t66.5 269.5q0 50 -17 96.5t-51 81t-88 56 t-130 21.5q-79 0 -131.5 -19.5t-86 -56t-50.5 -95.5t-17 -139z" />
<glyph unicode="&#xf1;" horiz-adv-x="1438" d="M175 0v635v3q0 216 125.5 329t414.5 113h2q291 0 418 -114t128 -331v-635h-280v620q-1 87 -62 133.5t-204 46.5t-202.5 -45.5t-59.5 -131.5v-3v-620h-280zM334 1241q6 60 22 109t43 83.5t64 53t83 18.5q42 0 82 -17.5t78 -38.5t73 -38.5t63 -17.5q46 0 69 26t37 88h106 q-6 -60 -22 -108.5t-43 -83t-64 -53.5t-83 -19q-40 0 -79 17.5t-77 39t-73 39t-67 17.5q-46 0 -70 -26.5t-38 -88.5h-104z" />
<glyph unicode="&#xf2;" horiz-adv-x="1550" d="M155 540q0 540 620 540t620 -540q0 -538 -620 -540h-4q-616 0 -616 540zM445 540q2 -260 325 -260h5q330 1 330 258v3v2q0 256 -330 257q-330 0 -330 -257v-3zM465 1537v72h284l10 -23q16 -33 26 -53l44 -79q34 -60 57 -97.5t43 -65.5l8 -10v-80h-174l-10 9 q-38 29 -80 72t-81 88t-72 86.5t-49 71.5z" />
<glyph unicode="&#xf3;" horiz-adv-x="1550" d="M155 540q0 540 620 540t620 -540q0 -538 -620 -540h-4q-616 0 -616 540zM445 540q2 -260 325 -260h5q330 1 330 258v3v2q0 256 -330 257q-330 0 -330 -257v-3zM585 1201v80l8 11q20 28 32 46l46 77q34 58 55 98t37 73l10 23h284v-72l-6 -9q-16 -30 -49 -71.5t-72 -86.5 t-81 -88t-78 -72l-12 -9h-174z" />
<glyph unicode="&#xf4;" horiz-adv-x="1550" d="M155 540q0 540 620 540t620 -540q0 -538 -620 -540h-4q-616 0 -616 540zM404 1241v27q26 29 60 67t67.5 78.5t63 81t45.5 74.5h192q16 -34 45.5 -74.5t63 -81t68 -78.5t59.5 -67v-27h-121q-51 34 -105 82.5t-106 103.5q-54 -55 -107 -103.5t-104 -82.5h-121zM445 540 q2 -260 325 -260h5q330 1 330 258v3v2q0 256 -330 257q-330 0 -330 -257v-3z" />
<glyph unicode="&#xf5;" horiz-adv-x="1550" d="M155 540q0 540 620 540t620 -540q0 -538 -620 -540h-4q-616 0 -616 540zM351 1241q6 60 22 109t43 83.5t64 53t83 18.5q42 0 82 -17.5t78 -38.5t73 -38.5t63 -17.5q46 0 69 26t37 88h106q-6 -60 -22 -108.5t-43 -83t-64 -53.5t-83 -19q-40 0 -79 17.5t-77 39t-73 39 t-67 17.5q-46 0 -70 -26.5t-38 -88.5h-104zM445 540q2 -260 325 -260h5q330 1 330 258v3v2q0 256 -330 257q-330 0 -330 -257v-3z" />
<glyph unicode="&#xf6;" horiz-adv-x="1550" d="M155 540q0 540 620 540t620 -540q0 -538 -620 -540h-4q-616 0 -616 540zM410 1391q0 44 14 73q10 24 39 48.5t83 24.5t84 -25t40 -48q14 -29 14 -65q0 -44 -14 -73q-10 -23 -40 -48.5t-84 -25.5q-56 0 -84 26t-38 48q-14 30 -14 65zM445 540q2 -260 325 -260h5 q330 1 330 258v3v2q0 256 -330 257q-330 0 -330 -257v-3zM786 1391q0 44 12 73q10 24 39 48.5t85 24.5q26 0 50 -8.5t44 -27t30 -45.5q12 -26 12 -57q0 -44 -14 -73q-10 -23 -40 -48.5t-82 -25.5q-56 0 -85 26t-39 48q-12 30 -12 65z" />
<glyph unicode="&#xf7;" horiz-adv-x="1318" d="M117 607v230h1084v-230h-1084zM480 413q0 42 13.5 73.5t39 52.5t58 30t67.5 9q33 0 66 -9t59 -30t40 -52.5t14 -73.5q0 -40 -13.5 -71.5t-39.5 -53t-59 -31t-67 -9.5q-36 0 -68 9.5t-57.5 31.5t-39 53t-13.5 71zM480 1031q0 42 13.5 73.5t39 52.5t58 30t67.5 9 q33 0 66 -9t59 -30t40 -52.5t14 -73.5q0 -40 -13.5 -71.5t-39.5 -53t-59 -31t-67 -9.5q-36 0 -68 9.5t-57.5 31.5t-39 53t-13.5 71z" />
<glyph unicode="&#xf8;" horiz-adv-x="1372" d="M128 550q0 133 35.5 238.5t103.5 179.5t177 112t245 38q78 0 138 -13.5t104 -31.5l77 109l201 -111l-87 -131q54 -67 88 -163t34 -226q0 -133 -35.5 -238.5t-104 -179t-177 -113.5t-244.5 -40q-131 0 -239 41l-78 -111l-201 108l87 133q-55 67 -89.5 166t-34.5 233z M399 511q0 -81 6.5 -119t9.5 -50l374 532q-10 3 -34 8t-70 5q-152 0 -219 -89.5t-67 -286.5zM584 223q10 -3 33.5 -7.5t69.5 -4.5q152 0 219 91.5t67 288.5q0 90 -15 159z" />
<glyph unicode="&#xf9;" horiz-adv-x="1510" d="M175 445v635h280v-620q0 -180 298 -180q302 0 302 180v620h280v-634q0 -446 -582 -446q-578 0 -578 445zM371 1537v72h284l10 -23q16 -33 26 -53l44 -79q34 -60 57 -97.5t43 -65.5l8 -10v-80h-174l-10 9q-38 29 -80 72t-81 88t-72 86.5t-49 71.5z" />
<glyph unicode="&#xfa;" horiz-adv-x="1510" d="M175 445v635h280v-620q0 -180 298 -180q302 0 302 180v620h280v-634q0 -446 -582 -446q-578 0 -578 445zM560 1201v80l8 11q20 28 32 46l46 77q34 58 55 98t37 73l10 23h284v-72l-6 -9q-16 -30 -49 -71.5t-72 -86.5t-81 -88t-78 -72l-12 -9h-174z" />
<glyph unicode="&#xfb;" horiz-adv-x="1510" d="M175 445v635h280v-620q0 -180 298 -180q302 0 302 180v620h280v-634q0 -446 -582 -446q-578 0 -578 445zM376 1241v27q26 29 60 67t67.5 78.5t63 81t45.5 74.5h192q16 -34 45.5 -74.5t63 -81t68 -78.5t59.5 -67v-27h-121q-51 34 -105 82.5t-106 103.5 q-54 -55 -107 -103.5t-104 -82.5h-121z" />
<glyph unicode="&#xfc;" horiz-adv-x="1510" d="M175 445v635h280v-620q0 -180 298 -180q302 0 302 180v620h280v-634q0 -446 -582 -446q-578 0 -578 445zM378 1391q0 44 14 73q10 24 39 48.5t83 24.5t84 -25t40 -48q14 -29 14 -65q0 -44 -14 -73q-10 -23 -40 -48.5t-84 -25.5q-56 0 -84 26t-38 48q-14 30 -14 65z M754 1391q0 44 12 73q10 24 39 48.5t85 24.5q26 0 50 -8.5t44 -27t30 -45.5q12 -26 12 -57q0 -44 -14 -73q-10 -23 -40 -48.5t-82 -25.5q-56 0 -85 26t-39 48q-12 30 -12 65z" />
<glyph unicode="&#xfd;" horiz-adv-x="1470" d="M156 540v540h280v-527q0 -137 83 -205t263 -68h254v800h280v-1140q0 -206 -107 -317.5t-349 -112.5l-504 -2v280h504q94 0 135 38t41 114v60h-254q-322 0 -476 133q-150 132 -150 407zM479 1201v80l8 11q20 28 32 46l46 77q34 58 55 98t37 73l10 23h284v-72l-6 -9 q-16 -30 -49 -71.5t-72 -86.5t-81 -88t-78 -72l-12 -9h-174z" />
<glyph unicode="&#xfe;" horiz-adv-x="1390" d="M158 -492v2048h266v-499l-4 -39q32 25 72 45q50 25 111 40t137 15q120 0 220 -40q88 -37 148 -110t92 -177.5t32 -239.5q0 -136 -32 -241t-92 -178.5t-148 -110.5q-100 -41 -220 -41q-74 0 -135 14.5t-111 38.5q-42 20 -74 45v-2q4 -42 4 -59v-509h-266zM424 551 q0 -88 14 -153t46 -105.5t84 -61t134 -20.5q130 0 194 84.5t64 257.5q0 175 -63 254.5t-197 79.5q-78 0 -128 -17t-82 -52t-48 -92.5t-18 -138.5v-36z" />
<glyph unicode="&#xff;" horiz-adv-x="1470" d="M156 540v540h280v-527q0 -137 83 -205t263 -68h254v800h280v-1140q0 -206 -107 -317.5t-349 -112.5l-504 -2v280h504q94 0 135 38t41 114v60h-254q-322 0 -476 133q-150 132 -150 407zM298 1391q0 44 14 73q10 24 39 48.5t83 24.5t84 -25t40 -48q14 -29 14 -65 q0 -44 -14 -73q-10 -23 -40 -48.5t-84 -25.5q-56 0 -84 26t-38 48q-14 30 -14 65zM674 1391q0 44 12 73q10 24 39 48.5t85 24.5q26 0 50 -8.5t44 -27t30 -45.5q12 -26 12 -57q0 -44 -14 -73q-10 -23 -40 -48.5t-82 -25.5q-56 0 -85 26t-39 48q-12 30 -12 65z" />
<glyph unicode="&#x152;" horiz-adv-x="2013" d="M139 735q0 166 40 303t124.5 236.5t221.5 155t321 55.5q107 0 200 -23h828v-244h-597v-332h558v-242h-558v-400h597v-244h-832q-45 -9 -95 -14.5t-103 -5.5q-184 0 -320.5 56t-220.5 156.5t-124 238.5t-40 304zM418 733q0 -123 26.5 -219t78 -160t130.5 -97.5t191 -33.5 q51 0 87 6.5t62 13.5v979q-25 7 -61 13t-86 6q-112 0 -191.5 -33.5t-131.5 -97t-78.5 -158.5t-26.5 -219z" />
<glyph unicode="&#x153;" horiz-adv-x="2054" d="M123 552q0 133 35.5 237.5t103.5 178.5t170.5 112t229.5 38q140 0 240 -53.5t163 -130.5q59 76 154 130t232 54q114 0 205 -38t151.5 -104.5t92 -157.5t31.5 -200v-144h-719q11 -135 77.5 -203t207.5 -68q51 0 95 4.5t83.5 12.5t75.5 20.5t74 28.5l57 25v-230l-23 -10 q-42 -18 -82.5 -32t-84.5 -24t-92.5 -14t-105.5 -4q-149 0 -253.5 54t-170.5 135q-64 -81 -165.5 -135t-249.5 -54q-118 0 -218 40t-169 113.5t-107 179.5t-38 239zM392 550.5q0 -176.5 63.5 -258t204.5 -81.5q137 0 201 77.5t64 253.5q0 186 -64.5 265.5t-202.5 79.5 q-141 0 -203.5 -80t-62.5 -256.5zM1219 702h433q-3 33 -14 67.5t-35.5 61.5t-62.5 41.5t-94 14.5q-101 0 -156 -49.5t-71 -135.5z" />
<glyph unicode="&#x178;" horiz-adv-x="1658" d="M175 974v494h284v-493q9 -201 370 -201q372 0 372 192q0 5 -1 9v493h283v-494q0 -422 -496 -462v-512h-280v511q-532 45 -532 463zM336 1729q0 44 14 73q10 24 39 48.5t83 24.5t84 -25t40 -48q14 -29 14 -65q0 -44 -14 -73q-10 -23 -40 -48.5t-84 -25.5q-56 0 -84 26 t-38 48q-14 30 -14 65zM712 1729q0 44 12 73q10 24 39 48.5t85 24.5q26 0 50 -8.5t44 -27t30 -45.5q12 -26 12 -57q0 -44 -14 -73q-10 -23 -40 -48.5t-82 -25.5q-56 0 -85 26t-39 48q-12 30 -12 65z" />
<glyph unicode="&#x2c6;" horiz-adv-x="1212" d="M274 1241v27q26 29 60 67t67.5 78.5t63 81t45.5 74.5h192q16 -34 45.5 -74.5t63 -81t68 -78.5t59.5 -67v-27h-121q-51 34 -105 82.5t-106 103.5q-54 -55 -107 -103.5t-104 -82.5h-121z" />
<glyph unicode="&#x2dc;" horiz-adv-x="1212" d="M246 1241q6 60 22 109t43 83.5t64 53t83 18.5q42 0 82 -17.5t78 -38.5t73 -38.5t63 -17.5q46 0 69 26t37 88h106q-6 -60 -22 -108.5t-43 -83t-64 -53.5t-83 -19q-40 0 -79 17.5t-77 39t-73 39t-67 17.5q-46 0 -70 -26.5t-38 -88.5h-104z" />
<glyph unicode="&#x2000;" horiz-adv-x="976" />
<glyph unicode="&#x2001;" horiz-adv-x="1953" />
<glyph unicode="&#x2002;" horiz-adv-x="976" />
<glyph unicode="&#x2003;" horiz-adv-x="1953" />
<glyph unicode="&#x2004;" horiz-adv-x="651" />
<glyph unicode="&#x2005;" horiz-adv-x="488" />
<glyph unicode="&#x2006;" horiz-adv-x="325" />
<glyph unicode="&#x2007;" horiz-adv-x="325" />
<glyph unicode="&#x2008;" horiz-adv-x="244" />
<glyph unicode="&#x2009;" horiz-adv-x="390" />
<glyph unicode="&#x200a;" horiz-adv-x="108" />
<glyph unicode="&#x2010;" horiz-adv-x="689" d="M56 425v248h576v-248h-576z" />
<glyph unicode="&#x2011;" horiz-adv-x="689" d="M56 425v248h576v-248h-576z" />
<glyph unicode="&#x2012;" horiz-adv-x="689" d="M56 425v248h576v-248h-576z" />
<glyph unicode="&#x2013;" horiz-adv-x="1054" d="M97 465v168h860v-168h-860z" />
<glyph unicode="&#x2014;" horiz-adv-x="2078" d="M97 465v168h1884v-168h-1884z" />
<glyph unicode="&#x2018;" horiz-adv-x="388" d="M38 983q14 54 33 115t42 123t49 123.5t52 117.5h136q-14 -61 -29 -127t-28 -131.5t-24 -127.5t-19 -115h-198z" />
<glyph unicode="&#x2019;" horiz-adv-x="388" d="M38 961q14 60 28 126l28 132q14 66 25 128t19 115h198l14 -22q-14 -55 -33 -115.5t-43 -123t-49 -123.5t-51 -117h-136z" />
<glyph unicode="&#x201a;" horiz-adv-x="542" d="M114 -264q15 61 29.5 127t28 131.5t24.5 128t19 115.5h198l15 -23q-14 -54 -33.5 -115t-43 -123t-49 -123.5t-50.5 -117.5h-138z" />
<glyph unicode="&#x201c;" horiz-adv-x="773" d="M38 983q14 54 33 115t42 123t49 123.5t52 117.5h136q-14 -61 -29 -127t-28 -131.5t-24 -127.5t-19 -115h-198zM422 983q14 54 34 115t43 123t49 123.5t50 117.5h138q-16 -61 -30 -127t-27 -131.5t-24 -127.5t-19 -115h-200z" />
<glyph unicode="&#x201d;" horiz-adv-x="773" d="M38 961q14 60 28 126l28 132q14 66 25 128t19 115h198l14 -22q-14 -55 -33 -115.5t-43 -123t-49 -123.5t-51 -117h-136zM422 961q14 60 29 126t28 132t24 128t19 115h200l14 -22q-14 -55 -34 -115.5t-43 -123t-49 -123.5t-50 -117h-138z" />
<glyph unicode="&#x201e;" horiz-adv-x="927" d="M114 -264q15 61 29.5 127t28 131.5t24.5 128t19 115.5h198l15 -23q-14 -54 -33.5 -115t-43 -123t-49 -123.5t-50.5 -117.5h-138zM500 -264q14 61 28.5 127t28 131.5t24.5 128t19 115.5h199l14 -23q-14 -54 -33.5 -115t-43 -123t-49 -123.5t-50.5 -117.5h-137z" />
<glyph unicode="&#x2022;" horiz-adv-x="800" d="M164 748q0 71 18 121t50 81.5t75 45.5t93 14q48 0 91 -14t75 -45.5t51 -81.5t19 -121q0 -70 -19 -120t-51 -81.5t-75 -46.5t-91 -15q-50 0 -93 15t-75 46.5t-50 81.5t-18 120z" />
<glyph unicode="&#x2026;" horiz-adv-x="1677" d="M162 111q0 38 10 64.5t27 43t40 24t51 7.5q26 0 49 -7t40 -24t27 -43.5t10 -64.5q0 -37 -10 -63.5t-27 -43.5t-40 -25t-49 -8q-28 0 -51 8t-40 25t-27 43.5t-10 63.5zM712 111q0 38 10 64.5t27 43t40 24t49 7.5t50 -7t41 -24t27 -43.5t10 -64.5q0 -37 -10 -63.5 t-27 -43.5t-41 -25t-50 -8t-49 8t-40 25t-27 43.5t-10 63.5zM1260 111q0 38 10 64.5t27 43t40 24t51 7.5q26 0 49 -7t40 -24t27 -43.5t10 -64.5q0 -37 -10 -63.5t-27 -43.5t-40 -25t-49 -8q-54 0 -91 33t-37 107z" />
<glyph unicode="&#x202f;" horiz-adv-x="390" />
<glyph unicode="&#x2039;" horiz-adv-x="620" d="M97 526v27l309 414l117 -78l-238 -348l238 -348l-117 -78z" />
<glyph unicode="&#x203a;" horiz-adv-x="620" d="M97 193l237 348l-237 348l117 78l309 -414v-27l-309 -411z" />
<glyph unicode="&#x205f;" horiz-adv-x="488" />
<glyph unicode="&#x20ac;" d="M62 502v137h148q-2 23 -2 38v44q0 22 1 45t1 31h-148v137h160q18 125 62 226t111 173t159 111t206 39q98 0 178 -21.5t158 -70.5l-80 -146q-50 31 -110 52.5t-132 21.5q-68 0 -127 -26t-106 -75.5t-81 -121t-52 -162.5h432v-137h-446q0 -15 -2 -29v-25v-22v-39 q0 -21 2 -43h384v-137h-366q34 -175 127 -267t241 -92q76 0 143 16t127 42v-162q-60 -28 -126 -43.5t-158 -15.5q-114 0 -205 36.5t-159 104t-112 164t-64 217.5h-164z" />
<glyph unicode="&#x2122;" horiz-adv-x="1564" d="M120 1354v108h522v-108h-198v-613h-128v613h-196zM708 741v721h186l180 -551l192 551h178v-721h-128v428q0 9 1 24t1 33l2 34v30h-6l-194 -549h-100l-186 549h-8q2 -16 3 -33t1 -32t1 -27t1 -18v-439h-124z" />
<glyph unicode="&#xe000;" horiz-adv-x="1080" d="M0 0v1080h1080v-1080h-1080z" />
<glyph unicode="&#xfb01;" horiz-adv-x="1234" d="M140 0v890q0 284 151 426q150 152 439 152h40v-280h-40q-161 0 -235 -82q-75 -69 -75 -209v-23h250v-280h-250v-594h-280zM815 0v942h280v-942h-280zM815 1229q0 42 18 88q17 43 60 54q40 11 62 11h2q35 -2 52 -8q42 -14 64 -51t22 -90v-5q-1 -38 -11 -64 q-19 -46 -65 -64q-27 -12 -64 -12h-2q-36 2 -54 8q-48 16 -69 62q-15 32 -15 71z" />
<glyph unicode="&#xfb02;" horiz-adv-x="1234" d="M139 0v890q0 284 151 426q150 152 439 152h40v-280h-40q-161 0 -235 -82q-75 -69 -75 -209v-23h250v-280h-250v-594h-280zM815 0v1468h280v-1468h-280z" />
<glyph unicode="&#xfb03;" horiz-adv-x="1908" d="M140 0v890q0 284 151 426q150 152 439 152h40v-280h-40q-161 0 -235 -82q-75 -69 -75 -209v-23h250v-280h-250v-594h-280zM814 0v890q0 284 151 426q150 152 439 152h40v-280h-40q-161 0 -235 -82q-75 -69 -75 -209v-23h250v-280h-250v-594h-280zM1489 0v942h280v-942 h-280zM1489 1229q0 42 18 88q17 43 60 54q40 11 62 11h2q35 -2 52 -8q42 -14 64 -51t22 -90v-5q-1 -38 -11 -64q-19 -46 -65 -64q-27 -12 -64 -12h-2q-36 2 -54 8q-48 16 -69 62q-15 32 -15 71z" />
<glyph unicode="&#xfb04;" horiz-adv-x="1908" d="M139 0v890q0 284 151 426q150 152 439 152h40v-280h-40q-161 0 -235 -82q-75 -69 -75 -209v-23h250v-280h-250v-594h-280zM813 0v890q0 284 151 426q150 152 439 152h40v-280h-40q-161 0 -235 -82q-75 -69 -75 -209v-23h250v-280h-250v-594h-280zM1489 0v1468h280v-1468 h-280z" />
</font>
</defs>
</svg>
